<svg width="60" height="60" viewBox="0 0 60 60" fill="none" xmlns="http://www.w3.org/2000/svg">
<circle opacity="0.5" cx="30" cy="30" r="30" fill="#FF9380"/>
<mask id="mask0_452_2438" style="mask-type:alpha" maskUnits="userSpaceOnUse" x="13" y="11" width="36" height="36">
<rect x="13.7213" y="11.5273" width="35" height="35" fill="#D9D9D9"/>
</mask>
<g mask="url(#mask0_452_2438)">
<path d="M37.3099 26.9486L33.8099 30.4486L35.2318 31.9069L36.2161 30.9225C36.0703 32.2107 35.5293 33.2982 34.593 34.1848C33.6577 35.0725 32.5338 35.5163 31.2213 35.5163C30.8811 35.5163 30.5714 35.492 30.2924 35.4434C30.0124 35.3947 29.7265 35.3097 29.4349 35.1882L27.9036 36.6829C28.3897 36.9746 28.9123 37.1992 29.4713 37.3567C30.0304 37.5152 30.6137 37.5944 31.2213 37.5944C33.1172 37.5944 34.7398 36.9445 36.0893 35.6446C37.4377 34.3438 38.1727 32.7333 38.2943 30.8132L39.4245 31.9069L40.8463 30.4486L37.3099 26.9486ZM25.1328 33.985L28.6328 30.485L27.2109 29.0267L26.2265 30.0111C26.3724 28.6986 26.9134 27.6048 27.8497 26.7298C28.7849 25.8548 29.9088 25.4173 31.2213 25.4173C31.5616 25.4173 31.8718 25.4416 32.1518 25.4902C32.4308 25.5388 32.7161 25.6239 33.0078 25.7454L34.539 24.2507C34.0529 23.959 33.5304 23.7339 32.9713 23.5754C32.4123 23.4179 31.829 23.3392 31.2213 23.3392C29.3255 23.3392 27.7033 23.9896 26.3549 25.2904C25.0054 26.5903 24.2699 28.2003 24.1484 30.1204L23.0182 29.0267L21.5963 30.485L25.1328 33.985ZM19.9922 42.5163C18.9713 42.5163 18.1027 42.1575 17.3861 41.44C16.6686 40.7235 16.3099 39.8548 16.3099 38.834V22.0996C16.3099 21.0788 16.6686 20.2096 17.3861 19.4921C18.1027 18.7756 18.9713 18.4173 19.9922 18.4173H24.1484L27.1015 15.209H35.3776L38.2943 18.4173H42.4505C43.4713 18.4173 44.3405 18.7756 45.058 19.4921C45.7745 20.2096 46.1328 21.0788 46.1328 22.0996V38.834C46.1328 39.8548 45.7745 40.7235 45.058 41.44C44.3405 42.1575 43.4713 42.5163 42.4505 42.5163H19.9922ZM42.4505 38.834V22.0996H36.6536L33.737 18.8913H28.7057L25.789 22.0996H19.9922V38.834H42.4505Z" fill="white"/>
</g>
</svg>
