<svg width="120" height="120" viewBox="0 0 120 120" fill="none" xmlns="http://www.w3.org/2000/svg">
<circle opacity="0.5" cx="60" cy="60" r="60" fill="#FF9380"/>
<mask id="mask0_452_2529" style="mask-type:alpha" maskUnits="userSpaceOnUse" x="20" y="18" width="81" height="81">
<rect x="20.363" y="18.0547" width="80" height="80" fill="#D9D9D9"/>
</mask>
<g mask="url(#mask0_452_2529)">
<path d="M60.363 75.8047C64.4185 75.8047 67.8496 74.4014 70.6563 71.5947C73.4607 68.7902 74.863 65.3602 74.863 61.3047C74.863 57.2491 73.4607 53.818 70.6563 51.0114C67.8496 48.2069 64.4185 46.8047 60.363 46.8047C56.3074 46.8047 52.8774 48.2069 50.073 51.0114C47.2663 53.818 45.863 57.2491 45.863 61.3047C45.863 65.3602 47.2663 68.7902 50.073 71.5947C52.8774 74.4014 56.3074 75.8047 60.363 75.8047ZM60.363 69.5547C58.0296 69.5547 56.0718 68.7625 54.4896 67.178C52.9052 65.5958 52.113 63.638 52.113 61.3047C52.113 58.9714 52.9052 57.0125 54.4896 55.428C56.0718 53.8458 58.0296 53.0547 60.363 53.0547C62.6963 53.0547 64.6552 53.8458 66.2396 55.428C67.8218 57.0125 68.613 58.9714 68.613 61.3047C68.613 63.638 67.8218 65.5958 66.2396 67.178C64.6552 68.7625 62.6963 69.5547 60.363 69.5547ZM34.363 87.9714C32.363 87.9714 30.6685 87.2769 29.2796 85.888C27.8907 84.4991 27.1963 82.8047 27.1963 80.8047V41.888C27.1963 39.888 27.8907 38.1936 29.2796 36.8047C30.6685 35.4158 32.363 34.7214 34.363 34.7214H44.4463L50.7796 27.8047H70.0296L76.2796 34.7214H86.363C88.363 34.7214 90.0574 35.4158 91.4463 36.8047C92.8352 38.1936 93.5296 39.888 93.5296 41.888V80.8047C93.5296 82.8047 92.8352 84.4991 91.4463 85.888C90.0574 87.2769 88.363 87.9714 86.363 87.9714H34.363ZM86.363 80.8047V41.888H73.113L66.863 34.9714H53.863L47.613 41.888H34.363V80.8047H86.363Z" fill="white"/>
</g>
</svg>
