<svg width="35" height="35" viewBox="0 0 35 35" fill="none" xmlns="http://www.w3.org/2000/svg">
<mask id="mask0_452_2461" style="mask-type:alpha" maskUnits="userSpaceOnUse" x="-1" y="-1" width="36" height="36">
<rect x="-0.278656" y="-0.472656" width="35" height="35" fill="#D9D9D9"/>
</mask>
<g mask="url(#mask0_452_2461)">
<path d="M23.3099 14.9486L19.8099 18.4486L21.2318 19.9069L22.2161 18.9225C22.0703 20.2107 21.5293 21.2982 20.593 22.1848C19.6577 23.0725 18.5338 23.5163 17.2213 23.5163C16.8811 23.5163 16.5714 23.492 16.2924 23.4434C16.0124 23.3947 15.7265 23.3097 15.4349 23.1882L13.9036 24.6829C14.3897 24.9746 14.9123 25.1992 15.4713 25.3567C16.0304 25.5152 16.6137 25.5944 17.2213 25.5944C19.1172 25.5944 20.7398 24.9445 22.0893 23.6446C23.4377 22.3438 24.1727 20.7333 24.2943 18.8132L25.4245 19.9069L26.8463 18.4486L23.3099 14.9486ZM11.1328 21.985L14.6328 18.485L13.2109 17.0267L12.2265 18.0111C12.3724 16.6986 12.9134 15.6048 13.8497 14.7298C14.7849 13.8548 15.9088 13.4173 17.2213 13.4173C17.5616 13.4173 17.8718 13.4416 18.1518 13.4902C18.4308 13.5388 18.7161 13.6239 19.0078 13.7454L20.539 12.2507C20.0529 11.959 19.5304 11.7339 18.9713 11.5754C18.4123 11.4179 17.829 11.3392 17.2213 11.3392C15.3255 11.3392 13.7033 11.9896 12.3549 13.2904C11.0054 14.5903 10.2699 16.2003 10.1484 18.1204L9.01821 17.0267L7.59633 18.485L11.1328 21.985ZM5.99217 30.5163C4.97133 30.5163 4.10265 30.1575 3.38613 29.44C2.66863 28.7235 2.30988 27.8548 2.30988 26.834V10.0996C2.30988 9.07878 2.66863 8.20961 3.38613 7.49211C4.10265 6.77558 4.97133 6.41732 5.99217 6.41732H10.1484L13.1015 3.20898H21.3776L24.2943 6.41732H28.4505C29.4713 6.41732 30.3405 6.77558 31.058 7.49211C31.7745 8.20961 32.1328 9.07878 32.1328 10.0996V26.834C32.1328 27.8548 31.7745 28.7235 31.058 29.44C30.3405 30.1575 29.4713 30.5163 28.4505 30.5163H5.99217ZM28.4505 26.834V10.0996H22.6536L19.737 6.89128H14.7057L11.789 10.0996H5.99217V26.834H28.4505Z" fill="white"/>
</g>
</svg>
