<svg width="120" height="120" viewBox="0 0 120 120" fill="none" xmlns="http://www.w3.org/2000/svg">
<circle opacity="0.5" cx="60" cy="60" r="60" fill="#FF9380"/>
<mask id="mask0_452_2464" style="mask-type:alpha" maskUnits="userSpaceOnUse" x="20" y="18" width="81" height="81">
<rect x="20.3631" y="18.0547" width="80" height="80" fill="#D9D9D9"/>
</mask>
<g mask="url(#mask0_452_2464)">
<path d="M60.363 75.8047C64.4186 75.8047 67.8497 74.4014 70.6564 71.5947C73.4608 68.7902 74.863 65.3602 74.863 61.3047C74.863 57.2491 73.4608 53.818 70.6564 51.0114C67.8497 48.2069 64.4186 46.8047 60.363 46.8047C56.3075 46.8047 52.8775 48.2069 50.073 51.0114C47.2664 53.818 45.863 57.2491 45.863 61.3047C45.863 65.3602 47.2664 68.7902 50.073 71.5947C52.8775 74.4014 56.3075 75.8047 60.363 75.8047ZM60.363 69.5547C58.0297 69.5547 56.0719 68.7625 54.4897 67.178C52.9053 65.5958 52.113 63.638 52.113 61.3047C52.113 58.9714 52.9053 57.0125 54.4897 55.428C56.0719 53.8458 58.0297 53.0547 60.363 53.0547C62.6964 53.0547 64.6553 53.8458 66.2397 55.428C67.8219 57.0125 68.613 58.9714 68.613 61.3047C68.613 63.638 67.8219 65.5958 66.2397 67.178C64.6553 68.7625 62.6964 69.5547 60.363 69.5547ZM34.363 87.9714C32.363 87.9714 30.6686 87.2769 29.2797 85.888C27.8908 84.4991 27.1964 82.8047 27.1964 80.8047V41.888C27.1964 39.888 27.8908 38.1936 29.2797 36.8047C30.6686 35.4158 32.363 34.7214 34.363 34.7214H44.4464L50.7797 27.8047H70.0297L76.2797 34.7214H86.363C88.363 34.7214 90.0575 35.4158 91.4464 36.8047C92.8353 38.1936 93.5297 39.888 93.5297 41.888V80.8047C93.5297 82.8047 92.8353 84.4991 91.4464 85.888C90.0575 87.2769 88.363 87.9714 86.363 87.9714H34.363ZM86.363 80.8047V41.888H73.113L66.863 34.9714H53.863L47.613 41.888H34.363V80.8047H86.363Z" fill="white"/>
</g>
</svg>
