<svg width="60" height="60" viewBox="0 0 60 60" fill="none" xmlns="http://www.w3.org/2000/svg">
<circle opacity="0.5" cx="30" cy="30" r="30" fill="#FF9380"/>
<mask id="mask0_452_2427" style="mask-type:alpha" maskUnits="userSpaceOnUse" x="12" y="11" width="36" height="36">
<rect x="12.7213" y="11.5273" width="35" height="35" fill="#D9D9D9"/>
</mask>
<g mask="url(#mask0_452_2427)">
<path d="M36.3098 26.9486L32.8098 30.4486L34.2317 31.9069L35.2161 30.9225C35.0702 32.2107 34.5292 33.2982 33.5929 34.1848C32.6577 35.0725 31.5338 35.5163 30.2213 35.5163C29.881 35.5163 29.5713 35.492 29.2923 35.4434C29.0123 35.3947 28.7265 35.3097 28.4348 35.1882L26.9036 36.6829C27.3897 36.9746 27.9122 37.1992 28.4713 37.3567C29.0303 37.5152 29.6136 37.5944 30.2213 37.5944C32.1171 37.5944 33.7397 36.9445 35.0892 35.6446C36.4377 34.3438 37.1727 32.7333 37.2942 30.8132L38.4244 31.9069L39.8463 30.4486L36.3098 26.9486ZM24.1327 33.985L27.6327 30.485L26.2109 29.0267L25.2265 30.0111C25.3723 28.6986 25.9134 27.6048 26.8496 26.7298C27.7849 25.8548 28.9088 25.4173 30.2213 25.4173C30.5616 25.4173 30.8717 25.4416 31.1517 25.4902C31.4307 25.5388 31.7161 25.6239 32.0077 25.7454L33.539 24.2507C33.0529 23.959 32.5303 23.7339 31.9713 23.5754C31.4122 23.4179 30.8289 23.3392 30.2213 23.3392C28.3254 23.3392 26.7033 23.9896 25.3548 25.2904C24.0054 26.5903 23.2699 28.2003 23.1484 30.1204L22.0181 29.0267L20.5963 30.485L24.1327 33.985ZM18.9921 42.5163C17.9713 42.5163 17.1026 42.1575 16.3861 41.44C15.6686 40.7235 15.3098 39.8548 15.3098 38.834V22.0996C15.3098 21.0788 15.6686 20.2096 16.3861 19.4921C17.1026 18.7756 17.9713 18.4173 18.9921 18.4173H23.1484L26.1015 15.209H34.3775L37.2942 18.4173H41.4504C42.4713 18.4173 43.3404 18.7756 44.0579 19.4921C44.7745 20.2096 45.1327 21.0788 45.1327 22.0996V38.834C45.1327 39.8548 44.7745 40.7235 44.0579 41.44C43.3404 42.1575 42.4713 42.5163 41.4504 42.5163H18.9921ZM41.4504 38.834V22.0996H35.6536L32.7369 18.8913H27.7056L24.789 22.0996H18.9921V38.834H41.4504Z" fill="white"/>
</g>
</svg>
