<svg width="60" height="60" viewBox="0 0 60 60" fill="none" xmlns="http://www.w3.org/2000/svg">
<circle opacity="0.5" cx="30" cy="30" r="30" fill="#FF9380"/>
<mask id="mask0_452_2430" style="mask-type:alpha" maskUnits="userSpaceOnUse" x="12" y="12" width="36" height="36">
<rect x="12.7213" y="12.8887" width="35" height="35" fill="#D9D9D9"/>
</mask>
<g mask="url(#mask0_452_2430)">
<path d="M37.0025 34.3997V23.6081H26.2109V19.8893H37.0025C38.0234 19.8893 38.8925 20.2476 39.61 20.9641C40.3265 21.6816 40.6848 22.5629 40.6848 23.6081V34.3997H37.0025ZM38.8619 46.2852C38.3515 46.2852 37.914 46.1029 37.5494 45.7383C37.1848 45.3737 37.0025 44.9362 37.0025 44.4258V40.8164H23.4765C22.4313 40.8164 21.55 40.4581 20.8325 39.7416C20.116 39.0241 19.7577 38.1549 19.7577 37.1341V23.6081H16.1484C15.6622 23.6081 15.2369 23.4258 14.8723 23.0612C14.5077 22.6966 14.3254 22.2591 14.3254 21.7487C14.3254 21.2383 14.5077 20.8008 14.8723 20.4362C15.2369 20.0716 15.6622 19.8893 16.1484 19.8893H19.7577V16.3164C19.7577 15.806 19.94 15.3685 20.3046 15.0039C20.6692 14.6393 21.1067 14.457 21.6171 14.457C22.1275 14.457 22.565 14.6393 22.9296 15.0039C23.2942 15.3685 23.4765 15.806 23.4765 16.3164V37.1341H44.2942C44.7803 37.1341 45.2056 37.3164 45.5702 37.681C45.9348 38.0456 46.1171 38.4709 46.1171 38.957C46.1171 39.4674 45.9348 39.9049 45.5702 40.2695C45.2056 40.6341 44.7803 40.8164 44.2942 40.8164H40.6848V44.4258C40.6848 44.9362 40.5025 45.3737 40.1379 45.7383C39.7734 46.1029 39.348 46.2852 38.8619 46.2852Z" fill="white"/>
</g>
</svg>
