<svg width="60" height="60" viewBox="0 0 60 60" fill="none" xmlns="http://www.w3.org/2000/svg">
<circle opacity="0.5" cx="30" cy="30" r="30" fill="#DE634D"/>
<mask id="mask0_452_2532" style="mask-type:alpha" maskUnits="userSpaceOnUse" x="12" y="12" width="35" height="35">
<rect x="12" y="12" width="35" height="35" fill="#D9D9D9"/>
</mask>
<g mask="url(#mask0_452_2532)">
<path d="M19.2917 37.5208C19.9236 37.5208 20.4462 37.3142 20.8594 36.901C21.2726 36.4878 21.4792 35.9653 21.4792 35.3333C21.4792 34.7014 21.2726 34.1788 20.8594 33.7656C20.4462 33.3524 19.9236 33.1458 19.2917 33.1458C18.6597 33.1458 18.1372 33.3524 17.724 33.7656C17.3108 34.1788 17.1042 34.7014 17.1042 35.3333C17.1042 35.9653 17.3108 36.4878 17.724 36.901C18.1372 37.3142 18.6597 37.5208 19.2917 37.5208ZM25.125 30.9583C25.5382 30.9583 25.8845 30.8186 26.1641 30.5391C26.4436 30.2596 26.5833 29.9132 26.5833 29.5C26.5833 29.0868 26.4436 28.7405 26.1641 28.4609C25.8845 28.1814 25.5382 28.0417 25.125 28.0417C24.7118 28.0417 24.3655 28.1814 24.0859 28.4609C23.8064 28.7405 23.6667 29.0868 23.6667 29.5C23.6667 29.9132 23.8064 30.2596 24.0859 30.5391C24.3655 30.8186 24.7118 30.9583 25.125 30.9583ZM25.125 25.125C25.5382 25.125 25.8845 24.9852 26.1641 24.7057C26.4436 24.4262 26.5833 24.0799 26.5833 23.6667C26.5833 23.2535 26.4436 22.9071 26.1641 22.6276C25.8845 22.3481 25.5382 22.2083 25.125 22.2083C24.7118 22.2083 24.3655 22.3481 24.0859 22.6276C23.8064 22.9071 23.6667 23.2535 23.6667 23.6667C23.6667 24.0799 23.8064 24.4262 24.0859 24.7057C24.3655 24.9852 24.7118 25.125 25.125 25.125ZM17.8333 42.625C17.4201 42.625 17.0738 42.4852 16.7943 42.2057C16.5148 41.9262 16.375 41.5799 16.375 41.1667C16.375 40.7535 16.5148 40.4071 16.7943 40.1276C17.0738 39.8481 17.4201 39.7083 17.8333 39.7083H41.1667C41.5799 39.7083 41.9262 39.8481 42.2057 40.1276C42.4852 40.4071 42.625 40.7535 42.625 41.1667C42.625 41.5799 42.4852 41.9262 42.2057 42.2057C41.9262 42.4852 41.5799 42.625 41.1667 42.625H17.8333ZM19.2917 25.8542C19.9236 25.8542 20.4462 25.6476 20.8594 25.2344C21.2726 24.8212 21.4792 24.2986 21.4792 23.6667C21.4792 23.0347 21.2726 22.5122 20.8594 22.099C20.4462 21.6858 19.9236 21.4792 19.2917 21.4792C18.6597 21.4792 18.1372 21.6858 17.724 22.099C17.3108 22.5122 17.1042 23.0347 17.1042 23.6667C17.1042 24.2986 17.3108 24.8212 17.724 25.2344C18.1372 25.6476 18.6597 25.8542 19.2917 25.8542ZM19.2917 31.6875C19.9236 31.6875 20.4462 31.4809 20.8594 31.0677C21.2726 30.6545 21.4792 30.1319 21.4792 29.5C21.4792 28.8681 21.2726 28.3455 20.8594 27.9323C20.4462 27.5191 19.9236 27.3125 19.2917 27.3125C18.6597 27.3125 18.1372 27.5191 17.724 27.9323C17.3108 28.3455 17.1042 28.8681 17.1042 29.5C17.1042 30.1319 17.3108 30.6545 17.724 31.0677C18.1372 31.4809 18.6597 31.6875 19.2917 31.6875ZM25.125 36.7917C25.5382 36.7917 25.8845 36.6519 26.1641 36.3724C26.4436 36.0929 26.5833 35.7465 26.5833 35.3333C26.5833 34.9201 26.4436 34.5738 26.1641 34.2943C25.8845 34.0148 25.5382 33.875 25.125 33.875C24.7118 33.875 24.3655 34.0148 24.0859 34.2943C23.8064 34.5738 23.6667 34.9201 23.6667 35.3333C23.6667 35.7465 23.8064 36.0929 24.0859 36.3724C24.3655 36.6519 24.7118 36.7917 25.125 36.7917ZM36.7917 36.0625C37.0104 36.0625 37.1866 35.9957 37.3203 35.862C37.454 35.7283 37.5208 35.5521 37.5208 35.3333C37.5208 35.1146 37.454 34.9384 37.3203 34.8047C37.1866 34.671 37.0104 34.6042 36.7917 34.6042C36.5729 34.6042 36.3967 34.671 36.263 34.8047C36.1293 34.9384 36.0625 35.1146 36.0625 35.3333C36.0625 35.5521 36.1293 35.7283 36.263 35.862C36.3967 35.9957 36.5729 36.0625 36.7917 36.0625ZM17.8333 16.375H41.1667C41.5799 16.375 41.9262 16.5148 42.2057 16.7943C42.4852 17.0738 42.625 17.4201 42.625 17.8333C42.625 18.2465 42.4852 18.5929 42.2057 18.8724C41.9262 19.1519 41.5799 19.2917 41.1667 19.2917H17.8333C17.4201 19.2917 17.0738 19.1519 16.7943 18.8724C16.5148 18.5929 16.375 18.2465 16.375 17.8333C16.375 17.4201 16.5148 17.0738 16.7943 16.7943C17.0738 16.5148 17.4201 16.375 17.8333 16.375ZM36.7917 24.3958C37.0104 24.3958 37.1866 24.329 37.3203 24.1953C37.454 24.0616 37.5208 23.8854 37.5208 23.6667C37.5208 23.4479 37.454 23.2717 37.3203 23.138C37.1866 23.0043 37.0104 22.9375 36.7917 22.9375C36.5729 22.9375 36.3967 23.0043 36.263 23.138C36.1293 23.2717 36.0625 23.4479 36.0625 23.6667C36.0625 23.8854 36.1293 24.0616 36.263 24.1953C36.3967 24.329 36.5729 24.3958 36.7917 24.3958ZM36.7917 30.2292C37.0104 30.2292 37.1866 30.1623 37.3203 30.0286C37.454 29.895 37.5208 29.7188 37.5208 29.5C37.5208 29.2812 37.454 29.105 37.3203 28.9714C37.1866 28.8377 37.0104 28.7708 36.7917 28.7708C36.5729 28.7708 36.3967 28.8377 36.263 28.9714C36.1293 29.105 36.0625 29.2812 36.0625 29.5C36.0625 29.7188 36.1293 29.895 36.263 30.0286C36.3967 30.1623 36.5729 30.2292 36.7917 30.2292ZM30.9583 25.125C31.3715 25.125 31.7179 24.9852 31.9974 24.7057C32.2769 24.4262 32.4167 24.0799 32.4167 23.6667C32.4167 23.2535 32.2769 22.9071 31.9974 22.6276C31.7179 22.3481 31.3715 22.2083 30.9583 22.2083C30.5451 22.2083 30.1988 22.3481 29.9193 22.6276C29.6398 22.9071 29.5 23.2535 29.5 23.6667C29.5 24.0799 29.6398 24.4262 29.9193 24.7057C30.1988 24.9852 30.5451 25.125 30.9583 25.125ZM30.9583 30.9583C31.3715 30.9583 31.7179 30.8186 31.9974 30.5391C32.2769 30.2596 32.4167 29.9132 32.4167 29.5C32.4167 29.0868 32.2769 28.7405 31.9974 28.4609C31.7179 28.1814 31.3715 28.0417 30.9583 28.0417C30.5451 28.0417 30.1988 28.1814 29.9193 28.4609C29.6398 28.7405 29.5 29.0868 29.5 29.5C29.5 29.9132 29.6398 30.2596 29.9193 30.5391C30.1988 30.8186 30.5451 30.9583 30.9583 30.9583ZM30.9583 36.7917C31.3715 36.7917 31.7179 36.6519 31.9974 36.3724C32.2769 36.0929 32.4167 35.7465 32.4167 35.3333C32.4167 34.9201 32.2769 34.5738 31.9974 34.2943C31.7179 34.0148 31.3715 33.875 30.9583 33.875C30.5451 33.875 30.1988 34.0148 29.9193 34.2943C29.6398 34.5738 29.5 34.9201 29.5 35.3333C29.5 35.7465 29.6398 36.0929 29.9193 36.3724C30.1988 36.6519 30.5451 36.7917 30.9583 36.7917Z" fill="white"/>
</g>
</svg>
