<svg width="55" height="45" viewBox="0 0 55 45" fill="none" xmlns="http://www.w3.org/2000/svg">
<path d="M5.83335 44.1663C4.34377 44.1663 3.0686 43.636 2.00783 42.5752C0.947069 41.5144 0.416687 40.2393 0.416687 38.7497V6.24967C0.416687 4.76009 0.947069 3.48492 2.00783 2.42415C3.0686 1.36339 4.34377 0.833008 5.83335 0.833008H19.849C20.5712 0.833008 21.2596 0.968424 21.9141 1.23926C22.5686 1.51009 23.1441 1.89377 23.6406 2.3903L27.5 6.24967H49.1667C50.6563 6.24967 51.9314 6.78006 52.9922 7.84082C54.053 8.90158 54.5834 10.1768 54.5834 11.6663V38.7497C54.5834 40.2393 54.053 41.5144 52.9922 42.5752C51.9314 43.636 50.6563 44.1663 49.1667 44.1663H5.83335ZM5.83335 6.24967V38.7497H49.1667V11.6663H25.2656L19.849 6.24967H5.83335Z" fill="#221212"/>
</svg>
