<svg width="68" height="54" viewBox="0 0 68 54" fill="none" xmlns="http://www.w3.org/2000/svg">
<path d="M7.33341 53.6663C5.50008 53.6663 3.93064 53.0136 2.62508 51.708C1.31953 50.4025 0.666748 48.833 0.666748 46.9997V6.99967C0.666748 5.16634 1.31953 3.5969 2.62508 2.29134C3.93064 0.985786 5.50008 0.333008 7.33341 0.333008H24.5834C25.4723 0.333008 26.3195 0.499674 27.1251 0.833008C27.9306 1.16634 28.639 1.63856 29.2501 2.24967L34.0001 6.99967H60.6667C62.5001 6.99967 64.0695 7.65245 65.3751 8.95801C66.6806 10.2636 67.3334 11.833 67.3334 13.6663V46.9997C67.3334 48.833 66.6806 50.4025 65.3751 51.708C64.0695 53.0136 62.5001 53.6663 60.6667 53.6663H7.33341ZM7.33341 6.99967V46.9997H60.6667V13.6663H31.2501L24.5834 6.99967H7.33341Z" fill="#221212"/>
</svg>
