<svg width="375" height="48" viewBox="0 0 375 48" fill="none" xmlns="http://www.w3.org/2000/svg">
<path d="M0 0H375V44C375 46.2091 373.209 48 371 48H4C1.79086 48 0 46.2091 0 44V0Z" fill="#FFB6A9"/>
<mask id="mask0_452_2633" style="mask-type:alpha" maskUnits="userSpaceOnUse" x="170" y="6" width="36" height="36">
<rect x="170.241" y="6.52734" width="35" height="35" fill="#D9D9D9"/>
</mask>
<g mask="url(#mask0_452_2633)">
<path d="M179.1 34.126H183.147V25.2666H192.335V34.126H196.381V21.1468L187.741 14.6937L179.1 21.1468V34.126ZM179.1 37.4437C178.177 37.4437 177.393 37.1219 176.749 36.4783C176.105 35.8337 175.782 35.0496 175.782 34.126V21.1468C175.782 20.6364 175.898 20.144 176.13 19.6695C176.36 19.196 176.682 18.8135 177.095 18.5218L185.736 12.0322C186.052 11.8135 186.374 11.6492 186.702 11.5393C187.03 11.4304 187.376 11.376 187.741 11.376C188.105 11.376 188.452 11.4304 188.781 11.5393C189.108 11.6492 189.43 11.8135 189.746 12.0322L198.387 18.5218C198.8 18.8135 199.122 19.196 199.354 19.6695C199.584 20.144 199.699 20.6364 199.699 21.1468V34.126C199.699 35.0496 199.377 35.8337 198.734 36.4783C198.089 37.1219 197.305 37.4437 196.381 37.4437H189.126V28.4749H186.355V37.4437H179.1Z" fill="white"/>
</g>
</svg>
