<svg width="34" height="35" viewBox="0 0 34 35" fill="none" xmlns="http://www.w3.org/2000/svg">
<mask id="mask0_636_2252" style="mask-type:alpha" maskUnits="userSpaceOnUse" x="-1" y="-1" width="35" height="36">
<rect x="-0.304077" y="-0.619141" width="33.5329" height="35" fill="#D9D9D9"/>
</mask>
<g mask="url(#mask0_636_2252)">
<path d="M19.0472 31.3913H13.8776C13.505 31.3913 13.1789 31.2639 12.8995 31.0092C12.6201 30.7535 12.4571 30.4312 12.4105 30.0423L11.9913 26.7611L11.6071 26.5234C11.3509 26.3659 10.9667 26.1534 10.4544 25.8861L7.5552 27.1621C7.2059 27.3079 6.85101 27.3138 6.49053 27.1796C6.12912 27.0464 5.85526 26.8097 5.66897 26.4694L3.08414 21.7663C2.89785 21.426 2.83963 21.0614 2.90949 20.6725C2.97935 20.2836 3.16564 19.9798 3.46837 19.7611L6.01827 17.7194C5.99498 17.5979 5.98334 17.4763 5.98334 17.3548V16.8809C5.98334 16.7593 5.9894 16.6257 6.0015 16.4798C6.01268 16.334 6.01827 16.1638 6.01827 15.9694L3.46837 13.9642C3.16564 13.7211 2.97376 13.4115 2.89272 13.0352C2.81075 12.658 2.87456 12.2993 3.08414 11.959L5.66897 7.29232C5.85526 6.95204 6.12912 6.72114 6.49053 6.59961C6.85101 6.47808 7.2059 6.49023 7.5552 6.63607L10.5243 7.91211C10.7338 7.76628 10.9551 7.62044 11.1879 7.47461C11.4208 7.32878 11.6886 7.18294 11.9913 7.03711L12.4105 3.68294C12.4571 3.29405 12.6201 2.97176 12.8995 2.71607C13.1789 2.46135 13.505 2.33398 13.8776 2.33398H19.0472C19.4198 2.33398 19.7458 2.46135 20.0253 2.71607C20.3047 2.97176 20.4677 3.29405 20.5143 3.68294L20.9334 7.00065C21.2129 7.12218 21.469 7.25586 21.7019 7.40169C21.9348 7.54753 22.1676 7.71766 22.4005 7.91211L25.4045 6.63607C25.7538 6.49023 26.0975 6.47808 26.4356 6.59961C26.7728 6.72114 27.0462 6.95204 27.2558 7.29232L29.8406 11.959C30.0502 12.2993 30.114 12.6638 30.032 13.0527C29.951 13.4416 29.7591 13.7454 29.4564 13.9642L26.8017 16.0423C26.825 16.1881 26.8366 16.316 26.8366 16.4259V16.8809C26.8366 17.0753 26.831 17.2333 26.8199 17.3548C26.8078 17.4763 26.7901 17.61 26.7668 17.7559L29.3865 19.7611C29.6893 19.9798 29.8816 20.2836 29.9636 20.6725C30.0446 21.0614 29.992 21.426 29.8057 21.7663L27.1859 26.4694C26.9996 26.8097 26.7258 27.0406 26.3644 27.1621C26.0039 27.2836 25.649 27.2715 25.2997 27.1256L22.3656 25.8496C22.1793 25.9954 21.9813 26.1354 21.7718 26.2696C21.5622 26.4028 21.2827 26.5666 20.9334 26.7611L20.5143 30.0423C20.4677 30.4312 20.3047 30.7535 20.0253 31.0092C19.7458 31.2639 19.4198 31.3913 19.0472 31.3913ZM16.4275 21.8027C17.7315 21.8027 18.8437 21.3225 19.764 20.3619C20.6833 19.4023 21.143 18.242 21.143 16.8809C21.143 15.5197 20.6833 14.3594 19.764 13.3998C18.8437 12.4393 17.7315 11.959 16.4275 11.959C15.1234 11.959 14.0117 12.4393 13.0923 13.3998C12.172 14.3594 11.7119 15.5197 11.7119 16.8809C11.7119 18.242 12.172 19.4023 13.0923 20.3619C14.0117 21.3225 15.1234 21.8027 16.4275 21.8027Z" fill="#221212"/>
</g>
</svg>
