<svg width="80" height="80" viewBox="0 0 80 80" fill="none" xmlns="http://www.w3.org/2000/svg">
<mask id="mask0_452_2281" style="mask-type:alpha" maskUnits="userSpaceOnUse" x="0" y="0" width="80" height="80">
<rect width="80" height="80" fill="#D9D9D9"/>
</mask>
<g mask="url(#mask0_452_2281)">
<path d="M16.8461 63.3537H21.1939L49.7447 34.783L45.3968 30.4353L16.8461 59.0059V63.3537ZM64.4132 29.9696L50.1468 15.8501L54.6939 11.283C56.0249 9.95216 57.6541 9.28007 59.5816 9.26679C61.5092 9.25352 63.165 9.9256 64.549 11.283L68.9367 15.6508C70.3207 17.0083 71.0206 18.6263 71.0363 20.505C71.052 22.3836 70.3944 23.9884 69.0635 25.3193L64.4132 29.9696ZM13.6523 70.3193C12.5883 70.3193 11.6903 69.9534 10.9584 69.2215C10.2265 68.4896 9.8606 67.5916 9.8606 66.5276V57.6491C9.8606 57.1382 9.95721 56.6478 10.1504 56.178C10.3437 55.7082 10.6269 55.2867 11.0001 54.9135L45.3135 20.6001L59.5998 34.8664L25.2863 69.1798C24.9131 69.553 24.4883 69.8362 24.0118 70.0295C23.5354 70.2227 23.0418 70.3193 22.5309 70.3193H13.6523ZM47.5907 32.6091L45.3968 30.4353L49.7447 34.783L47.5907 32.6091Z" fill="#221212"/>
</g>
</svg>
