<svg width="80" height="80" viewBox="0 0 80 80" fill="none" xmlns="http://www.w3.org/2000/svg">
<mask id="mask0_452_2412" style="mask-type:alpha" maskUnits="userSpaceOnUse" x="0" y="0" width="80" height="80">
<rect width="80" height="80" fill="#D9D9D9"/>
</mask>
<g mask="url(#mask0_452_2412)">
<path d="M16.4475 74.0111C13.5501 74.0111 11.0827 72.9924 9.04524 70.9549C7.0078 68.9175 5.98907 66.4501 5.98907 63.5527V16.4477C5.98907 13.537 7.0078 11.0663 9.04524 9.03551C11.0827 7.00467 13.5501 5.98926 16.4475 5.98926H63.5525C66.4632 5.98926 68.9339 7.00467 70.9647 9.03551C72.9955 11.0663 74.0109 13.537 74.0109 16.4477V63.5527C74.0109 66.4501 72.9955 68.9175 70.9647 70.9549C68.9339 72.9924 66.4632 74.0111 63.5525 74.0111H16.4475ZM16.4475 66.4277H63.5525C64.3774 66.4277 65.0628 66.1514 65.6087 65.5989C66.1546 65.0464 66.4275 64.3643 66.4275 63.5527V16.4477C66.4275 15.6228 66.1546 14.9374 65.6087 14.3915C65.0628 13.8456 64.3774 13.5727 63.5525 13.5727H16.4475C15.6359 13.5727 14.9538 13.8456 14.4012 14.3915C13.8487 14.9374 13.5725 15.6228 13.5725 16.4477V63.5527C13.5725 64.3643 13.8487 65.0464 14.4012 65.5989C14.9538 66.1514 15.6359 66.4277 16.4475 66.4277ZM19.6413 59.8408L33.3333 46.1487L39.3134 52.0454L46.6667 42.7755L60.3188 59.8408H19.6413ZM26.8261 33.6324C24.9396 33.6324 23.3303 32.9697 21.9982 31.6442C20.666 30.3187 20 28.7128 20 26.8263C20 24.9398 20.666 23.3305 21.9982 21.9983C23.3303 20.6662 24.9396 20.0002 26.8261 20.0002C28.7126 20.0002 30.3186 20.6662 31.644 21.9983C32.9695 23.3305 33.6322 24.9398 33.6322 26.8263C33.6322 28.7128 32.9695 30.3187 31.644 31.6442C30.3186 32.9697 28.7126 33.6324 26.8261 33.6324Z" fill="#221212"/>
</g>
</svg>
