<svg width="82" height="80" viewBox="0 0 82 80" fill="none" xmlns="http://www.w3.org/2000/svg">
<mask id="mask0_452_2667" style="mask-type:alpha" maskUnits="userSpaceOnUse" x="0" y="0" width="82" height="80">
<rect width="82" height="80" fill="#D9D9D9"/>
</mask>
<g mask="url(#mask0_452_2667)">
<path d="M41 74.0111C36.2375 74.0111 31.7364 73.1161 27.4966 71.3263C23.2568 69.5364 19.5545 67.0977 16.3897 64.0102C13.225 60.9226 10.7253 57.3105 8.89075 53.1738C7.05611 49.0372 6.13879 44.6456 6.13879 39.9989C6.13879 35.2956 7.07778 30.8764 8.95575 26.7411C10.8337 22.6058 13.3835 19.005 16.6052 15.9386C19.8268 12.8721 23.585 10.4473 27.8796 8.66409C32.1743 6.88087 36.7591 5.98926 41.6341 5.98926C46.277 5.98926 50.6642 6.76976 54.7957 8.33076C58.9273 9.89176 62.5538 12.0494 65.6752 14.8036C68.7966 17.5578 71.2747 20.82 73.1092 24.5902C74.9439 28.3603 75.8612 32.4282 75.8612 36.7937C75.8612 43.2623 73.8579 48.3046 69.8513 51.9205C65.8448 55.5365 60.9058 57.3444 55.0343 57.3444H49.1833C48.7253 57.3444 48.4 57.47 48.2075 57.7212C48.015 57.9724 47.9187 58.258 47.9187 58.5781C47.9187 59.2182 48.305 60.0835 49.0774 61.1741C49.8499 62.2646 50.2362 63.5823 50.2362 65.127C50.2362 68.0111 49.3783 70.2128 47.6625 71.7321C45.9468 73.2514 43.7259 74.0111 41 74.0111ZM22.4535 43.3335C23.934 43.3335 25.1583 42.8613 26.1264 41.9168C27.0944 40.9724 27.5785 39.778 27.5785 38.3335C27.5785 36.8891 27.0944 35.6946 26.1264 34.7502C25.1583 33.8057 23.934 33.3335 22.4535 33.3335C20.9729 33.3335 19.7486 33.8057 18.7805 34.7502C17.8125 35.6946 17.3285 36.8891 17.3285 38.3335C17.3285 39.778 17.8125 40.9724 18.7805 41.9168C19.7486 42.8613 20.9729 43.3335 22.4535 43.3335ZM32.5809 30.1795C34.0614 30.1795 35.2858 29.7073 36.2538 28.7628C37.2219 27.8184 37.7059 26.624 37.7059 25.1795C37.7059 23.7351 37.2219 22.5406 36.2538 21.5962C35.2858 20.6517 34.0614 20.1795 32.5809 20.1795C31.1003 20.1795 29.876 20.6517 28.908 21.5962C27.9399 22.5406 27.4559 23.7351 27.4559 25.1795C27.4559 26.624 27.9399 27.8184 28.908 28.7628C29.876 29.7073 31.1003 30.1795 32.5809 30.1795ZM49.4191 30.1795C50.8996 30.1795 52.1239 29.7073 53.092 28.7628C54.0601 27.8184 54.5441 26.624 54.5441 25.1795C54.5441 23.7351 54.0601 22.5406 53.092 21.5962C52.1239 20.6517 50.8996 20.1795 49.4191 20.1795C47.9385 20.1795 46.7142 20.6517 45.7462 21.5962C44.7781 22.5406 44.2941 23.7351 44.2941 25.1795C44.2941 26.624 44.7781 27.8184 45.7462 28.7628C46.7142 29.7073 47.9385 30.1795 49.4191 30.1795ZM59.4853 43.3335C60.9658 43.3335 62.1901 42.8613 63.1582 41.9168C64.1262 40.9724 64.6103 39.778 64.6103 38.3335C64.6103 36.8891 64.1262 35.6946 63.1582 34.7502C62.1901 33.8057 60.9658 33.3335 59.4853 33.3335C58.0047 33.3335 56.7804 33.8057 55.8123 34.7502C54.8443 35.6946 54.3603 36.8891 54.3603 38.3335C54.3603 39.778 54.8443 40.9724 55.8123 41.9168C56.7804 42.8613 58.0047 43.3335 59.4853 43.3335ZM40.8774 66.4277C41.3593 66.4277 41.7474 66.2962 42.0419 66.0332C42.3364 65.7702 42.4837 65.4283 42.4837 65.0074C42.4837 64.2296 42.0532 63.3362 41.1922 62.3272C40.3312 61.3181 39.9007 59.7846 39.9007 57.7266C39.9007 55.3269 40.7501 53.3993 42.4489 51.944C44.1477 50.4887 46.2272 49.761 48.6875 49.761H55.0343C58.7654 49.761 61.8738 48.6982 64.3596 46.5727C66.8453 44.4471 68.0882 41.2339 68.0882 36.9332C68.0882 30.211 65.4681 24.637 60.2281 20.2113C54.9879 15.7855 48.7899 13.5727 41.6339 13.5727C33.9709 13.5727 27.4348 16.1361 22.0256 21.2628C16.6164 26.3897 13.9118 32.6386 13.9118 40.0098C13.9118 47.3258 16.5399 53.5578 21.7961 58.7058C27.0523 63.8537 33.4127 66.4277 40.8774 66.4277Z" fill="#221212"/>
</g>
</svg>
