<svg width="80" height="80" viewBox="0 0 80 80" fill="none" xmlns="http://www.w3.org/2000/svg">
<mask id="mask0_452_2658" style="mask-type:alpha" maskUnits="userSpaceOnUse" x="-1" y="1" width="81" height="81">
<rect x="-0.636902" y="1.05566" width="80" height="80" fill="#D9D9D9"/>
</mask>
<g mask="url(#mask0_452_2658)">
<path d="M39.3631 58.8057C43.4186 58.8057 46.8497 57.4023 49.6564 54.5957C52.4609 51.7912 53.8631 48.3612 53.8631 44.3057C53.8631 40.2501 52.4609 36.819 49.6564 34.0123C46.8497 31.2079 43.4186 29.8057 39.3631 29.8057C35.3075 29.8057 31.8775 31.2079 29.0731 34.0123C26.2664 36.819 24.8631 40.2501 24.8631 44.3057C24.8631 48.3612 26.2664 51.7912 29.0731 54.5957C31.8775 57.4023 35.3075 58.8057 39.3631 58.8057ZM39.3631 52.5557C37.0297 52.5557 35.072 51.7634 33.4897 50.179C31.9053 48.5968 31.1131 46.639 31.1131 44.3057C31.1131 41.9723 31.9053 40.0134 33.4897 38.429C35.072 36.8468 37.0297 36.0557 39.3631 36.0557C41.6964 36.0557 43.6553 36.8468 45.2397 38.429C46.822 40.0134 47.6131 41.9723 47.6131 44.3057C47.6131 46.639 46.822 48.5968 45.2397 50.179C43.6553 51.7634 41.6964 52.5557 39.3631 52.5557ZM13.3631 70.9723C11.3631 70.9723 9.66863 70.2779 8.27974 68.889C6.89086 67.5001 6.19641 65.8057 6.19641 63.8057V24.889C6.19641 22.889 6.89086 21.1946 8.27974 19.8057C9.66863 18.4168 11.3631 17.7223 13.3631 17.7223H23.4464L29.7797 10.8057H49.0297L55.2797 17.7223H65.3631C67.3631 17.7223 69.0575 18.4168 70.4464 19.8057C71.8353 21.1946 72.5297 22.889 72.5297 24.889V63.8057C72.5297 65.8057 71.8353 67.5001 70.4464 68.889C69.0575 70.2779 67.3631 70.9723 65.3631 70.9723H13.3631ZM65.3631 63.8057V24.889H52.1131L45.8631 17.9723H32.8631L26.6131 24.889H13.3631V63.8057H65.3631Z" fill="#221212"/>
</g>
</svg>
