<svg width="65" height="65" viewBox="0 0 65 65" fill="none" xmlns="http://www.w3.org/2000/svg">
<mask id="mask0_452_2645" style="mask-type:alpha" maskUnits="userSpaceOnUse" x="0" y="0" width="65" height="65">
<rect width="65" height="65" fill="#D9D9D9"/>
</mask>
<g mask="url(#mask0_452_2645)">
<path d="M27.2129 43.9486C25.5074 43.9486 24.0541 43.348 22.8531 42.1469C21.652 40.9459 21.0514 39.4926 21.0514 37.7871V16.1204C21.0514 14.415 21.652 12.9617 22.8531 11.7606C24.0541 10.5595 25.5074 9.95898 27.2129 9.95898H48.8796C50.585 9.95898 52.0383 10.5595 53.2394 11.7606C54.4405 12.9617 55.041 14.415 55.041 16.1204V37.7871C55.041 39.4926 54.4405 40.9459 53.2394 42.1469C52.0383 43.348 50.585 43.9486 48.8796 43.9486H27.2129ZM27.2129 16.1204V37.7871H48.8796V16.1204H27.2129ZM16.1367 55.0248C14.4312 55.0248 12.9779 54.4242 11.7769 53.2231C10.5758 52.0221 9.97522 50.5688 9.97522 48.8633V25.6997C9.97522 24.8352 10.2725 24.1056 10.8672 23.5109C11.4619 22.9163 12.1914 22.619 13.0559 22.619C13.9204 22.619 14.65 22.9163 15.2447 23.5109C15.8393 24.1056 16.1367 24.8352 16.1367 25.6997V48.8633H39.3003C40.1648 48.8633 40.8944 49.1606 41.489 49.7553C42.0837 50.35 42.381 51.0795 42.381 51.944C42.381 52.8085 42.0837 53.5381 41.489 54.1328C40.8944 54.7274 40.1648 55.0248 39.3003 55.0248H16.1367Z" fill="#221212"/>
</g>
</svg>
