<svg width="80" height="80" viewBox="0 0 80 80" fill="none" xmlns="http://www.w3.org/2000/svg">
<mask id="mask0_452_2415" style="mask-type:alpha" maskUnits="userSpaceOnUse" x="-1" y="1" width="81" height="81">
<rect x="-0.636932" y="1.05566" width="80" height="80" fill="#D9D9D9"/>
</mask>
<g mask="url(#mask0_452_2415)">
<path d="M39.363 58.8057C43.4186 58.8057 46.8497 57.4023 49.6563 54.5957C52.4608 51.7912 53.863 48.3612 53.863 44.3057C53.863 40.2501 52.4608 36.819 49.6563 34.0123C46.8497 31.2079 43.4186 29.8057 39.363 29.8057C35.3075 29.8057 31.8775 31.2079 29.073 34.0123C26.2663 36.819 24.863 40.2501 24.863 44.3057C24.863 48.3612 26.2663 51.7912 29.073 54.5957C31.8775 57.4023 35.3075 58.8057 39.363 58.8057ZM39.363 52.5557C37.0297 52.5557 35.0719 51.7634 33.4897 50.179C31.9052 48.5968 31.113 46.639 31.113 44.3057C31.113 41.9723 31.9052 40.0134 33.4897 38.429C35.0719 36.8468 37.0297 36.0557 39.363 36.0557C41.6964 36.0557 43.6552 36.8468 45.2397 38.429C46.8219 40.0134 47.613 41.9723 47.613 44.3057C47.613 46.639 46.8219 48.5968 45.2397 50.179C43.6552 51.7634 41.6964 52.5557 39.363 52.5557ZM13.363 70.9723C11.363 70.9723 9.66857 70.2779 8.27968 68.889C6.89079 67.5001 6.19635 65.8057 6.19635 63.8057V24.889C6.19635 22.889 6.89079 21.1946 8.27968 19.8057C9.66857 18.4168 11.363 17.7223 13.363 17.7223H23.4464L29.7797 10.8057H49.0297L55.2797 17.7223H65.363C67.363 17.7223 69.0575 18.4168 70.4464 19.8057C71.8352 21.1946 72.5297 22.889 72.5297 24.889V63.8057C72.5297 65.8057 71.8352 67.5001 70.4464 68.889C69.0575 70.2779 67.363 70.9723 65.363 70.9723H13.363ZM65.363 63.8057V24.889H52.113L45.863 17.9723H32.863L26.613 24.889H13.363V63.8057H65.363Z" fill="#221212"/>
</g>
</svg>
