<svg width="80" height="80" viewBox="0 0 80 80" fill="none" xmlns="http://www.w3.org/2000/svg">
<mask id="mask0_452_2664" style="mask-type:alpha" maskUnits="userSpaceOnUse" x="0" y="0" width="80" height="80">
<rect width="80" height="80" fill="#D9D9D9"/>
</mask>
<g mask="url(#mask0_452_2664)">
<path d="M16.6667 58.3333C18.1111 58.3333 19.3056 57.8611 20.25 56.9167C21.1944 55.9722 21.6667 54.7778 21.6667 53.3333C21.6667 51.8889 21.1944 50.6944 20.25 49.75C19.3056 48.8056 18.1111 48.3333 16.6667 48.3333C15.2222 48.3333 14.0278 48.8056 13.0833 49.75C12.1389 50.6944 11.6667 51.8889 11.6667 53.3333C11.6667 54.7778 12.1389 55.9722 13.0833 56.9167C14.0278 57.8611 15.2222 58.3333 16.6667 58.3333ZM30 43.3333C30.9444 43.3333 31.7361 43.0139 32.375 42.375C33.0139 41.7361 33.3333 40.9444 33.3333 40C33.3333 39.0556 33.0139 38.2639 32.375 37.625C31.7361 36.9861 30.9444 36.6667 30 36.6667C29.0556 36.6667 28.2639 36.9861 27.625 37.625C26.9861 38.2639 26.6667 39.0556 26.6667 40C26.6667 40.9444 26.9861 41.7361 27.625 42.375C28.2639 43.0139 29.0556 43.3333 30 43.3333ZM30 30C30.9444 30 31.7361 29.6806 32.375 29.0417C33.0139 28.4028 33.3333 27.6111 33.3333 26.6667C33.3333 25.7222 33.0139 24.9306 32.375 24.2917C31.7361 23.6528 30.9444 23.3333 30 23.3333C29.0556 23.3333 28.2639 23.6528 27.625 24.2917C26.9861 24.9306 26.6667 25.7222 26.6667 26.6667C26.6667 27.6111 26.9861 28.4028 27.625 29.0417C28.2639 29.6806 29.0556 30 30 30ZM13.3333 70C12.3889 70 11.5972 69.6806 10.9583 69.0417C10.3194 68.4028 10 67.6111 10 66.6667C10 65.7222 10.3194 64.9306 10.9583 64.2917C11.5972 63.6528 12.3889 63.3333 13.3333 63.3333H66.6667C67.6111 63.3333 68.4028 63.6528 69.0417 64.2917C69.6806 64.9306 70 65.7222 70 66.6667C70 67.6111 69.6806 68.4028 69.0417 69.0417C68.4028 69.6806 67.6111 70 66.6667 70H13.3333ZM16.6667 31.6667C18.1111 31.6667 19.3056 31.1944 20.25 30.25C21.1944 29.3056 21.6667 28.1111 21.6667 26.6667C21.6667 25.2222 21.1944 24.0278 20.25 23.0833C19.3056 22.1389 18.1111 21.6667 16.6667 21.6667C15.2222 21.6667 14.0278 22.1389 13.0833 23.0833C12.1389 24.0278 11.6667 25.2222 11.6667 26.6667C11.6667 28.1111 12.1389 29.3056 13.0833 30.25C14.0278 31.1944 15.2222 31.6667 16.6667 31.6667ZM16.6667 45C18.1111 45 19.3056 44.5278 20.25 43.5833C21.1944 42.6389 21.6667 41.4444 21.6667 40C21.6667 38.5556 21.1944 37.3611 20.25 36.4167C19.3056 35.4722 18.1111 35 16.6667 35C15.2222 35 14.0278 35.4722 13.0833 36.4167C12.1389 37.3611 11.6667 38.5556 11.6667 40C11.6667 41.4444 12.1389 42.6389 13.0833 43.5833C14.0278 44.5278 15.2222 45 16.6667 45ZM30 56.6667C30.9444 56.6667 31.7361 56.3472 32.375 55.7083C33.0139 55.0694 33.3333 54.2778 33.3333 53.3333C33.3333 52.3889 33.0139 51.5972 32.375 50.9583C31.7361 50.3194 30.9444 50 30 50C29.0556 50 28.2639 50.3194 27.625 50.9583C26.9861 51.5972 26.6667 52.3889 26.6667 53.3333C26.6667 54.2778 26.9861 55.0694 27.625 55.7083C28.2639 56.3472 29.0556 56.6667 30 56.6667ZM56.6667 55C57.1667 55 57.5694 54.8472 57.875 54.5417C58.1806 54.2361 58.3333 53.8333 58.3333 53.3333C58.3333 52.8333 58.1806 52.4306 57.875 52.125C57.5694 51.8194 57.1667 51.6667 56.6667 51.6667C56.1667 51.6667 55.7639 51.8194 55.4583 52.125C55.1528 52.4306 55 52.8333 55 53.3333C55 53.8333 55.1528 54.2361 55.4583 54.5417C55.7639 54.8472 56.1667 55 56.6667 55ZM13.3333 10H66.6667C67.6111 10 68.4028 10.3194 69.0417 10.9583C69.6806 11.5972 70 12.3889 70 13.3333C70 14.2778 69.6806 15.0694 69.0417 15.7083C68.4028 16.3472 67.6111 16.6667 66.6667 16.6667H13.3333C12.3889 16.6667 11.5972 16.3472 10.9583 15.7083C10.3194 15.0694 10 14.2778 10 13.3333C10 12.3889 10.3194 11.5972 10.9583 10.9583C11.5972 10.3194 12.3889 10 13.3333 10ZM56.6667 28.3333C57.1667 28.3333 57.5694 28.1806 57.875 27.875C58.1806 27.5694 58.3333 27.1667 58.3333 26.6667C58.3333 26.1667 58.1806 25.7639 57.875 25.4583C57.5694 25.1528 57.1667 25 56.6667 25C56.1667 25 55.7639 25.1528 55.4583 25.4583C55.1528 25.7639 55 26.1667 55 26.6667C55 27.1667 55.1528 27.5694 55.4583 27.875C55.7639 28.1806 56.1667 28.3333 56.6667 28.3333ZM56.6667 41.6667C57.1667 41.6667 57.5694 41.5139 57.875 41.2083C58.1806 40.9028 58.3333 40.5 58.3333 40C58.3333 39.5 58.1806 39.0972 57.875 38.7917C57.5694 38.4861 57.1667 38.3333 56.6667 38.3333C56.1667 38.3333 55.7639 38.4861 55.4583 38.7917C55.1528 39.0972 55 39.5 55 40C55 40.5 55.1528 40.9028 55.4583 41.2083C55.7639 41.5139 56.1667 41.6667 56.6667 41.6667ZM43.3333 30C44.2778 30 45.0694 29.6806 45.7083 29.0417C46.3472 28.4028 46.6667 27.6111 46.6667 26.6667C46.6667 25.7222 46.3472 24.9306 45.7083 24.2917C45.0694 23.6528 44.2778 23.3333 43.3333 23.3333C42.3889 23.3333 41.5972 23.6528 40.9583 24.2917C40.3194 24.9306 40 25.7222 40 26.6667C40 27.6111 40.3194 28.4028 40.9583 29.0417C41.5972 29.6806 42.3889 30 43.3333 30ZM43.3333 43.3333C44.2778 43.3333 45.0694 43.0139 45.7083 42.375C46.3472 41.7361 46.6667 40.9444 46.6667 40C46.6667 39.0556 46.3472 38.2639 45.7083 37.625C45.0694 36.9861 44.2778 36.6667 43.3333 36.6667C42.3889 36.6667 41.5972 36.9861 40.9583 37.625C40.3194 38.2639 40 39.0556 40 40C40 40.9444 40.3194 41.7361 40.9583 42.375C41.5972 43.0139 42.3889 43.3333 43.3333 43.3333ZM43.3333 56.6667C44.2778 56.6667 45.0694 56.3472 45.7083 55.7083C46.3472 55.0694 46.6667 54.2778 46.6667 53.3333C46.6667 52.3889 46.3472 51.5972 45.7083 50.9583C45.0694 50.3194 44.2778 50 43.3333 50C42.3889 50 41.5972 50.3194 40.9583 50.9583C40.3194 51.5972 40 52.3889 40 53.3333C40 54.2778 40.3194 55.0694 40.9583 55.7083C41.5972 56.3472 42.3889 56.6667 43.3333 56.6667Z" fill="#221212"/>
</g>
</svg>
