<svg width="35" height="35" viewBox="0 0 35 35" fill="none" xmlns="http://www.w3.org/2000/svg">
<mask id="mask0_623_2138" style="mask-type:alpha" maskUnits="userSpaceOnUse" x="0" y="0" width="35" height="35">
<rect width="35" height="35" fill="#D9D9D9"/>
</mask>
<g mask="url(#mask0_623_2138)">
<path d="M5.83329 26.5815C5.36779 26.5815 4.97494 26.4214 4.65474 26.1012C4.33454 25.781 4.17444 25.3882 4.17444 24.9227C4.17444 24.4572 4.33454 24.0643 4.65474 23.7441C4.97494 23.4239 5.36779 23.2638 5.83329 23.2638H29.1666C29.6321 23.2638 30.025 23.4239 30.3452 23.7441C30.6654 24.0643 30.8255 24.4572 30.8255 24.9227C30.8255 25.3882 30.6654 25.781 30.3452 26.1012C30.025 26.4214 29.6321 26.5815 29.1666 26.5815H5.83329ZM5.83329 19.1591C5.36779 19.1591 4.97494 18.999 4.65474 18.6788C4.33454 18.3586 4.17444 17.9657 4.17444 17.5002C4.17444 17.0347 4.33454 16.6419 4.65474 16.3217C4.97494 16.0015 5.36779 15.8414 5.83329 15.8414H29.1666C29.6321 15.8414 30.025 16.0015 30.3452 16.3217C30.6654 16.6419 30.8255 17.0347 30.8255 17.5002C30.8255 17.9657 30.6654 18.3586 30.3452 18.6788C30.025 18.999 29.6321 19.1591 29.1666 19.1591H5.83329ZM5.83329 11.7367C5.36779 11.7367 4.97494 11.5766 4.65474 11.2564C4.33454 10.9362 4.17444 10.5433 4.17444 10.0778C4.17444 9.6123 4.33454 9.21945 4.65474 8.89925C4.97494 8.57905 5.36779 8.41895 5.83329 8.41895H29.1666C29.6321 8.41895 30.025 8.57905 30.3452 8.89925C30.6654 9.21945 30.8255 9.6123 30.8255 10.0778C30.8255 10.5433 30.6654 10.9362 30.3452 11.2564C30.025 11.5766 29.6321 11.7367 29.1666 11.7367H5.83329Z" fill="white"/>
</g>
</svg>
