<svg width="80" height="80" viewBox="0 0 80 80" fill="none" xmlns="http://www.w3.org/2000/svg">
<mask id="mask0_452_2418" style="mask-type:alpha" maskUnits="userSpaceOnUse" x="0" y="0" width="80" height="80">
<rect width="80" height="80" fill="#D9D9D9"/>
</mask>
<g mask="url(#mask0_452_2418)">
<path d="M40 74.0111C35.3537 74.0111 30.9623 73.1161 26.8259 71.3263C22.6895 69.5364 19.0775 67.0977 15.99 64.0102C12.9024 60.9226 10.4637 57.3105 8.67391 53.1738C6.88402 49.0372 5.98907 44.6456 5.98907 39.9989C5.98907 35.2956 6.90516 30.8764 8.73732 26.7411C10.5694 22.6058 13.057 19.005 16.2002 15.9386C19.3433 12.8721 23.0098 10.4473 27.1997 8.66409C31.3895 6.88087 35.8625 5.98926 40.6187 5.98926C45.1483 5.98926 49.4285 6.76976 53.4592 8.33076C57.49 9.89176 61.0281 12.0494 64.0734 14.8036C67.1187 17.5578 69.5362 20.82 71.3261 24.5902C73.116 28.3603 74.0109 32.4282 74.0109 36.7937C74.0109 43.2623 72.0565 48.3046 68.1477 51.9205C64.2388 55.5365 59.4203 57.3444 53.692 57.3444H47.9837C47.5368 57.3444 47.2195 57.47 47.0317 57.7212C46.8439 57.9724 46.75 58.258 46.75 58.5781C46.75 59.2182 47.1268 60.0835 47.8804 61.1741C48.6341 62.2646 49.0109 63.5823 49.0109 65.127C49.0109 68.0111 48.1739 70.2128 46.5 71.7321C44.8261 73.2514 42.6594 74.0111 40 74.0111ZM21.9058 43.3335C23.3503 43.3335 24.5447 42.8613 25.4892 41.9168C26.4336 40.9724 26.9058 39.778 26.9058 38.3335C26.9058 36.8891 26.4336 35.6946 25.4892 34.7502C24.5447 33.8057 23.3503 33.3335 21.9058 33.3335C20.4614 33.3335 19.2669 33.8057 18.3225 34.7502C17.378 35.6946 16.9058 36.8891 16.9058 38.3335C16.9058 39.778 17.378 40.9724 18.3225 41.9168C19.2669 42.8613 20.4614 43.3335 21.9058 43.3335ZM31.7862 30.1795C33.2307 30.1795 34.4251 29.7073 35.3696 28.7628C36.314 27.8184 36.7862 26.624 36.7862 25.1795C36.7862 23.7351 36.314 22.5406 35.3696 21.5962C34.4251 20.6517 33.2307 20.1795 31.7862 20.1795C30.3418 20.1795 29.1474 20.6517 28.2029 21.5962C27.2585 22.5406 26.7862 23.7351 26.7862 25.1795C26.7862 26.624 27.2585 27.8184 28.2029 28.7628C29.1474 29.7073 30.3418 30.1795 31.7862 30.1795ZM48.2137 30.1795C49.6582 30.1795 50.8526 29.7073 51.7971 28.7628C52.7415 27.8184 53.2137 26.624 53.2137 25.1795C53.2137 23.7351 52.7415 22.5406 51.7971 21.5962C50.8526 20.6517 49.6582 20.1795 48.2137 20.1795C46.7693 20.1795 45.5749 20.6517 44.6304 21.5962C43.686 22.5406 43.2137 23.7351 43.2137 25.1795C43.2137 26.624 43.686 27.8184 44.6304 28.7628C45.5749 29.7073 46.7693 30.1795 48.2137 30.1795ZM58.0344 43.3335C59.4789 43.3335 60.6733 42.8613 61.6177 41.9168C62.5622 40.9724 63.0344 39.778 63.0344 38.3335C63.0344 36.8891 62.5622 35.6946 61.6177 34.7502C60.6733 33.8057 59.4789 33.3335 58.0344 33.3335C56.59 33.3335 55.3955 33.8057 54.4511 34.7502C53.5066 35.6946 53.0344 36.8891 53.0344 38.3335C53.0344 39.778 53.5066 40.9724 54.4511 41.9168C55.3955 42.8613 56.59 43.3335 58.0344 43.3335ZM39.8804 66.4277C40.3505 66.4277 40.7292 66.2962 41.0165 66.0332C41.3038 65.7702 41.4475 65.4283 41.4475 65.0074C41.4475 64.2296 41.0275 63.3362 40.1875 62.3272C39.3475 61.3181 38.9275 59.7846 38.9275 57.7266C38.9275 55.3269 39.7562 53.3993 41.4136 51.944C43.0709 50.4887 45.0997 49.761 47.5 49.761H53.692C57.3321 49.761 60.3647 48.6982 62.7898 46.5727C65.2149 44.4471 66.4275 41.2339 66.4275 36.9332C66.4275 30.211 63.8714 24.637 58.7591 20.2113C53.6467 15.7855 47.5999 13.5727 40.6185 13.5727C33.1423 13.5727 26.7656 16.1361 21.4884 21.2628C16.2111 26.3897 13.5725 32.6386 13.5725 40.0098C13.5725 47.3258 16.1365 53.5578 21.2645 58.7058C26.3925 63.8537 32.5978 66.4277 39.8804 66.4277Z" fill="#221212"/>
</g>
</svg>
