<svg width="65" height="65" viewBox="0 0 65 65" fill="none" xmlns="http://www.w3.org/2000/svg">
<mask id="mask0_452_2646" style="mask-type:alpha" maskUnits="userSpaceOnUse" x="0" y="0" width="65" height="65">
<rect width="65" height="65" fill="#D9D9D9"/>
</mask>
<g mask="url(#mask0_452_2646)">
<path d="M13.6874 51.4741H17.2201L40.4175 28.2604L36.8849 24.7279L13.6874 47.9415V51.4741ZM52.3357 24.3495L40.7443 12.8774L44.4388 9.16668C45.5202 8.08533 46.8439 7.53927 48.41 7.52848C49.9762 7.51769 51.3215 8.06376 52.4461 9.16668L56.011 12.7155C57.1356 13.8184 57.7042 15.1331 57.717 16.6595C57.7297 18.1859 57.1954 19.4898 56.1141 20.5711L52.3357 24.3495ZM11.0924 57.1336C10.2279 57.1336 9.49837 56.8363 8.90371 56.2416C8.30905 55.647 8.01172 54.9174 8.01172 54.0529V46.8391C8.01172 46.424 8.09022 46.0255 8.24721 45.6438C8.40425 45.2621 8.63436 44.9197 8.93756 44.6165L36.8172 16.7368L48.4248 28.3281L20.5451 56.2078C20.2419 56.511 19.8967 56.7412 19.5096 56.8982C19.1225 57.0551 18.7214 57.1336 18.3064 57.1336H11.0924ZM38.6674 26.4941L36.8849 24.7279L40.4175 28.2604L38.6674 26.4941Z" fill="#221212"/>
</g>
</svg>
