<svg width="35" height="35" viewBox="0 0 35 35" fill="none" xmlns="http://www.w3.org/2000/svg">
<mask id="mask0_611_2759" style="mask-type:alpha" maskUnits="userSpaceOnUse" x="0" y="0" width="35" height="35">
<rect width="35" height="35" fill="#D9D9D9"/>
</mask>
<g mask="url(#mask0_611_2759)">
<path d="M5.83335 26.5815C5.36785 26.5815 4.975 26.4214 4.6548 26.1012C4.3346 25.781 4.1745 25.3882 4.1745 24.9227C4.1745 24.4572 4.3346 24.0643 4.6548 23.7441C4.975 23.4239 5.36785 23.2638 5.83335 23.2638H29.1667C29.6322 23.2638 30.025 23.4239 30.3452 23.7441C30.6654 24.0643 30.8255 24.4572 30.8255 24.9227C30.8255 25.3882 30.6654 25.781 30.3452 26.1012C30.025 26.4214 29.6322 26.5815 29.1667 26.5815H5.83335ZM5.83335 19.1591C5.36785 19.1591 4.975 18.999 4.6548 18.6788C4.3346 18.3586 4.1745 17.9657 4.1745 17.5002C4.1745 17.0347 4.3346 16.6419 4.6548 16.3217C4.975 16.0015 5.36785 15.8414 5.83335 15.8414H29.1667C29.6322 15.8414 30.025 16.0015 30.3452 16.3217C30.6654 16.6419 30.8255 17.0347 30.8255 17.5002C30.8255 17.9657 30.6654 18.3586 30.3452 18.6788C30.025 18.999 29.6322 19.1591 29.1667 19.1591H5.83335ZM5.83335 11.7367C5.36785 11.7367 4.975 11.5766 4.6548 11.2564C4.3346 10.9362 4.1745 10.5433 4.1745 10.0778C4.1745 9.6123 4.3346 9.21945 4.6548 8.89925C4.975 8.57905 5.36785 8.41895 5.83335 8.41895H29.1667C29.6322 8.41895 30.025 8.57905 30.3452 8.89925C30.6654 9.21945 30.8255 9.6123 30.8255 10.0778C30.8255 10.5433 30.6654 10.9362 30.3452 11.2564C30.025 11.5766 29.6322 11.7367 29.1667 11.7367H5.83335Z" fill="white"/>
</g>
</svg>
