<svg width="34" height="35" viewBox="0 0 34 35" fill="none" xmlns="http://www.w3.org/2000/svg">
<mask id="mask0_636_2258" style="mask-type:alpha" maskUnits="userSpaceOnUse" x="-1" y="0" width="35" height="36">
<rect x="-0.266968" y="0.461914" width="33.5329" height="35" fill="#D9D9D9"/>
</mask>
<g mask="url(#mask0_636_2258)">
<path d="M16.4995 25.7275C18.1994 25.7275 19.6376 25.1136 20.8141 23.8857C21.9896 22.6587 22.5773 21.1581 22.5773 19.3838C22.5773 17.6095 21.9896 16.1084 20.8141 14.8805C19.6376 13.6535 18.1994 13.04 16.4995 13.04C14.7996 13.04 13.3618 13.6535 12.1863 14.8805C11.0099 16.1084 10.4216 17.6095 10.4216 19.3838C10.4216 21.1581 11.0099 22.6587 12.1863 23.8857C13.3618 25.1136 14.7996 25.7275 16.4995 25.7275ZM16.4995 22.9932C15.5214 22.9932 14.7008 22.6466 14.0376 21.9534C13.3735 21.2611 13.0414 20.4046 13.0414 19.3838C13.0414 18.363 13.3735 17.5059 14.0376 16.8127C14.7008 16.1205 15.5214 15.7744 16.4995 15.7744C17.4775 15.7744 18.2986 16.1205 18.9628 16.8127C19.626 17.5059 19.9576 18.363 19.9576 19.3838C19.9576 20.4046 19.626 21.2611 18.9628 21.9534C18.2986 22.6466 17.4775 22.9932 16.4995 22.9932ZM5.60128 31.0505C4.76296 31.0505 4.05271 30.7466 3.47054 30.139C2.88837 29.5314 2.59729 28.79 2.59729 27.915V10.889C2.59729 10.014 2.88837 9.27268 3.47054 8.66504C4.05271 8.0574 4.76296 7.75358 5.60128 7.75358H9.82783L12.4825 4.72754H20.5514L23.1711 7.75358H27.3977C28.236 7.75358 28.9463 8.0574 29.5284 8.66504C30.1106 9.27268 30.4017 10.014 30.4017 10.889V27.915C30.4017 28.79 30.1106 29.5314 29.5284 30.139C28.9463 30.7466 28.236 31.0505 27.3977 31.0505H5.60128ZM27.3977 27.915V10.889H21.8438L19.224 7.86296H13.7749L11.1552 10.889H5.60128V27.915H27.3977Z" fill="#221212"/>
</g>
</svg>
