<svg width="80" height="80" viewBox="0 0 80 80" fill="none" xmlns="http://www.w3.org/2000/svg">
<mask id="mask0_452_2280" style="mask-type:alpha" maskUnits="userSpaceOnUse" x="0" y="0" width="80" height="80">
<rect width="80" height="80" fill="#D9D9D9"/>
</mask>
<g mask="url(#mask0_452_2280)">
<path d="M33.4928 54.0902C31.3938 54.0902 29.6051 53.351 28.1269 51.8728C26.6486 50.3945 25.9095 48.6059 25.9095 46.5068V19.8402C25.9095 17.7411 26.6486 15.9524 28.1269 14.4742C29.6051 12.9959 31.3938 12.2568 33.4928 12.2568H60.1595C62.2585 12.2568 64.0472 12.9959 65.5255 14.4742C67.0037 15.9524 67.7428 17.7411 67.7428 19.8402V46.5068C67.7428 48.6059 67.0037 50.3945 65.5255 51.8728C64.0472 53.351 62.2585 54.0902 60.1595 54.0902H33.4928ZM33.4928 19.8402V46.5068H60.1595V19.8402H33.4928ZM19.8606 67.7224C17.7615 67.7224 15.9729 66.9833 14.4946 65.505C13.0164 64.0268 12.2772 62.2381 12.2772 60.1391V31.63C12.2772 30.566 12.6432 29.6681 13.3751 28.9362C14.1069 28.2043 15.0049 27.8383 16.0689 27.8383C17.1329 27.8383 18.0308 28.2043 18.7627 28.9362C19.4946 29.6681 19.8606 30.566 19.8606 31.63V60.1391H48.3696C49.4336 60.1391 50.3316 60.505 51.0635 61.2369C51.7954 61.9688 52.1613 62.8668 52.1613 63.9308C52.1613 64.9948 51.7954 65.8927 51.0635 66.6246C50.3316 67.3565 49.4336 67.7224 48.3696 67.7224H19.8606Z" fill="#221212"/>
</g>
</svg>
