<svg width="80" height="80" viewBox="0 0 80 80" fill="none" xmlns="http://www.w3.org/2000/svg">
<mask id="mask0_452_2282" style="mask-type:alpha" maskUnits="userSpaceOnUse" x="-1" y="-1" width="81" height="81">
<rect x="-0.798096" y="-0.03125" width="80" height="80" fill="#D9D9D9"/>
</mask>
<g mask="url(#mask0_452_2282)">
<path d="M21.8363 70.7008C19.503 70.7008 17.5174 69.882 15.8796 68.2442C14.2396 66.6042 13.4196 64.6175 13.4196 62.2842V20.7008H13.253C12.1419 20.7008 11.1696 20.2842 10.3363 19.4508C9.50297 18.6175 9.0863 17.6453 9.0863 16.5342C9.0863 15.3675 9.50297 14.3675 10.3363 13.5342C11.1696 12.7008 12.1419 12.2842 13.253 12.2842H27.9196C27.9196 11.1175 28.323 10.1175 29.1296 9.28418C29.9341 8.45085 30.9196 8.03418 32.0863 8.03418H45.503C46.6696 8.03418 47.6563 8.45085 48.463 9.28418C49.2674 10.1175 49.6696 11.1175 49.6696 12.2842H64.3363C65.4474 12.2842 66.4196 12.7008 67.253 13.5342C68.0863 14.3675 68.503 15.3675 68.503 16.5342C68.503 17.6453 68.0863 18.6175 67.253 19.4508C66.4196 20.2842 65.4474 20.7008 64.3363 20.7008H64.1696V62.2842C64.1696 64.6175 63.3507 66.6042 61.713 68.2442C60.073 69.882 58.0863 70.7008 55.753 70.7008H21.8363ZM21.8363 20.7008V62.2842H55.753V20.7008H21.8363ZM38.8363 46.8675L44.503 52.5342C45.2807 53.2564 46.1696 53.632 47.1696 53.6608C48.1696 53.6875 49.0308 53.312 49.753 52.5342C50.4752 51.812 50.8496 50.9375 50.8763 49.9108C50.9052 48.882 50.5308 48.0342 49.753 47.3675L44.003 41.6175L49.753 35.8675C50.4752 35.1453 50.8496 34.2697 50.8763 33.2408C50.9052 32.2142 50.5308 31.3675 49.753 30.7008C49.0863 29.9231 48.2396 29.5342 47.213 29.5342C46.1841 29.5342 45.3085 29.9231 44.5863 30.7008L38.8363 36.3675L33.0863 30.7008C32.3641 29.9231 31.4896 29.5342 30.463 29.5342C29.4341 29.5342 28.5585 29.9231 27.8363 30.7008C27.1141 31.4231 26.7674 32.2842 26.7963 33.2842C26.823 34.2842 27.1696 35.1453 27.8363 35.8675L33.5863 41.6175L27.8363 47.3675C27.1141 48.0897 26.753 48.9508 26.753 49.9508C26.753 50.9508 27.1141 51.812 27.8363 52.5342C28.6141 53.2564 29.503 53.632 30.503 53.6608C31.503 53.6875 32.3641 53.312 33.0863 52.5342L38.8363 46.8675Z" fill="#221212"/>
</g>
</svg>
