<svg width="20" height="20" viewBox="0 0 20 20" fill="none" xmlns="http://www.w3.org/2000/svg">
<mask id="mask0_636_2960" style="mask-type:alpha" maskUnits="userSpaceOnUse" x="-1" y="-1" width="21" height="21">
<rect x="-0.0824585" y="-0.163086" width="20" height="20" fill="#D9D9D9"/>
</mask>
<g mask="url(#mask0_636_2960)">
<path d="M9.91756 15.7747C9.6259 15.7747 9.3759 15.6706 9.16756 15.4622C8.95923 15.2539 8.85506 15.0039 8.85506 14.7122V10.8789H5.02173C4.73006 10.8789 4.48006 10.7747 4.27173 10.5664C4.0634 10.3581 3.95923 10.1081 3.95923 9.81641C3.95923 9.53863 4.0634 9.29557 4.27173 9.08724C4.48006 8.87891 4.73006 8.77474 5.02173 8.77474H8.85506V4.92057C8.85506 4.6428 8.95923 4.39974 9.16756 4.19141C9.3759 3.98307 9.6259 3.87891 9.91756 3.87891C10.2092 3.87891 10.4592 3.98307 10.6676 4.19141C10.8759 4.39974 10.9801 4.6428 10.9801 4.92057V8.77474H14.8134C15.1051 8.77474 15.3551 8.87891 15.5634 9.08724C15.7717 9.29557 15.8759 9.53863 15.8759 9.81641C15.8759 10.1081 15.7717 10.3581 15.5634 10.5664C15.3551 10.7747 15.1051 10.8789 14.8134 10.8789H10.9801V14.7122C10.9801 15.0039 10.8759 15.2539 10.6676 15.4622C10.4592 15.6706 10.2092 15.7747 9.91756 15.7747Z" fill="#221212"/>
</g>
</svg>
