<svg width="65" height="65" viewBox="0 0 65 65" fill="none" xmlns="http://www.w3.org/2000/svg">
<mask id="mask0_452_2647" style="mask-type:alpha" maskUnits="userSpaceOnUse" x="-1" y="-1" width="81" height="81">
<rect x="-0.798096" y="-0.03125" width="80" height="80" fill="#D9D9D9"/>
</mask>
<g mask="url(#mask0_452_2647)">
<path d="M17.7421 57.445C15.8462 57.445 14.233 56.7796 12.9023 55.4489C11.5698 54.1164 10.9035 52.5023 10.9035 50.6064V16.82H10.7681C9.86533 16.82 9.0754 16.4814 8.39832 15.8044C7.72123 15.1273 7.38269 14.3373 7.38269 13.4346C7.38269 12.4867 7.72123 11.6742 8.39832 10.9971C9.0754 10.32 9.86533 9.98145 10.7681 9.98145H22.6848C22.6848 9.03353 23.0125 8.22103 23.6679 7.54395C24.3215 6.86686 25.1223 6.52832 26.0702 6.52832H36.9712C37.9191 6.52832 38.7208 6.86686 39.3762 7.54395C40.0298 8.22103 40.3566 9.03353 40.3566 9.98145H52.2733C53.1761 9.98145 53.966 10.32 54.6431 10.9971C55.3202 11.6742 55.6587 12.4867 55.6587 13.4346C55.6587 14.3373 55.3202 15.1273 54.6431 15.8044C53.966 16.4814 53.1761 16.82 52.2733 16.82H52.1379V50.6064C52.1379 52.5023 51.4725 54.1164 50.1419 55.4489C48.8094 56.7796 47.1952 57.445 45.2994 57.445H17.7421ZM17.7421 16.82V50.6064H45.2994V16.82H17.7421ZM31.5546 38.0804L36.1587 42.6846C36.7907 43.2714 37.5129 43.5765 38.3254 43.6C39.1379 43.6217 39.8376 43.3165 40.4244 42.6846C41.0112 42.0978 41.3154 41.3873 41.3371 40.5531C41.3605 39.7171 41.0563 39.0283 40.4244 38.4867L35.7525 33.8148L40.4244 29.1429C41.0112 28.5561 41.3154 27.8447 41.3371 27.0087C41.3605 26.1746 41.0563 25.4867 40.4244 24.945C39.8827 24.313 39.1948 23.9971 38.3606 23.9971C37.5246 23.9971 36.8132 24.313 36.2264 24.945L31.5546 29.5492L26.8827 24.945C26.2959 24.313 25.5854 23.9971 24.7512 23.9971C23.9153 23.9971 23.2039 24.313 22.6171 24.945C22.0303 25.5318 21.7486 26.2314 21.7721 27.0439C21.7937 27.8564 22.0754 28.5561 22.6171 29.1429L27.2889 33.8148L22.6171 38.4867C22.0303 39.0735 21.7369 39.7731 21.7369 40.5856C21.7369 41.3981 22.0303 42.0978 22.6171 42.6846C23.249 43.2714 23.9712 43.5765 24.7837 43.6C25.5962 43.6217 26.2959 43.3165 26.8827 42.6846L31.5546 38.0804Z" fill="#221212"/>
</g>
</svg>
