<svg width="34" height="35" viewBox="0 0 34 35" fill="none" xmlns="http://www.w3.org/2000/svg">
<mask id="mask0_611_2264" style="mask-type:alpha" maskUnits="userSpaceOnUse" x="0" y="0" width="36" height="36">
<rect x="0.240723" y="0.527344" width="35" height="35" fill="#D9D9D9"/>
</mask>
<g mask="url(#mask0_611_2264)">
<path d="M8.71868 28.126H12.5959V19.2666H21.3983V28.126H25.2756V15.1468L16.9971 8.69368L8.71868 15.1468V28.126ZM8.71868 31.4437C7.83378 31.4437 7.08302 31.1219 6.46639 30.4783C5.84882 29.8337 5.54004 29.0496 5.54004 28.126V15.1468C5.54004 14.6364 5.65088 14.144 5.87257 13.6695C6.09333 13.196 6.40165 12.8135 6.79752 12.5218L15.076 6.03223C15.3787 5.81348 15.6875 5.64917 16.0023 5.53931C16.3162 5.43042 16.6478 5.37598 16.9971 5.37598C17.3464 5.37598 17.6785 5.43042 17.9933 5.53931C18.3072 5.64917 18.6156 5.81348 18.9183 6.03223L27.1967 12.5218C27.5926 12.8135 27.9014 13.196 28.1231 13.6695C28.3438 14.144 28.4542 14.6364 28.4542 15.1468V28.126C28.4542 29.0496 28.1459 29.8337 27.5293 30.4783C26.9117 31.1219 26.1605 31.4437 25.2756 31.4437H18.3245V22.4749H15.6698V31.4437H8.71868Z" fill="#221212"/>
</g>
</svg>
