<svg width="35" height="35" viewBox="0 0 35 35" fill="none" xmlns="http://www.w3.org/2000/svg">
<mask id="mask0_636_2170" style="mask-type:alpha" maskUnits="userSpaceOnUse" x="0" y="0" width="35" height="35">
<rect width="35" height="35" fill="#D9D9D9"/>
</mask>
<g mask="url(#mask0_636_2170)">
<path d="M5.83341 26.5815C5.36791 26.5815 4.97506 26.4214 4.65486 26.1012C4.33466 25.781 4.17456 25.3882 4.17456 24.9227C4.17456 24.4572 4.33466 24.0643 4.65486 23.7441C4.97506 23.4239 5.36791 23.2638 5.83341 23.2638H29.1667C29.6322 23.2638 30.0251 23.4239 30.3453 23.7441C30.6655 24.0643 30.8256 24.4572 30.8256 24.9227C30.8256 25.3882 30.6655 25.781 30.3453 26.1012C30.0251 26.4214 29.6322 26.5815 29.1667 26.5815H5.83341ZM5.83341 19.1591C5.36791 19.1591 4.97506 18.999 4.65486 18.6788C4.33466 18.3586 4.17456 17.9657 4.17456 17.5002C4.17456 17.0347 4.33466 16.6419 4.65486 16.3217C4.97506 16.0015 5.36791 15.8414 5.83341 15.8414H29.1667C29.6322 15.8414 30.0251 16.0015 30.3453 16.3217C30.6655 16.6419 30.8256 17.0347 30.8256 17.5002C30.8256 17.9657 30.6655 18.3586 30.3453 18.6788C30.0251 18.999 29.6322 19.1591 29.1667 19.1591H5.83341ZM5.83341 11.7367C5.36791 11.7367 4.97506 11.5766 4.65486 11.2564C4.33466 10.9362 4.17456 10.5433 4.17456 10.0778C4.17456 9.6123 4.33466 9.21945 4.65486 8.89925C4.97506 8.57905 5.36791 8.41895 5.83341 8.41895H29.1667C29.6322 8.41895 30.0251 8.57905 30.3453 8.89925C30.6655 9.21945 30.8256 9.6123 30.8256 10.0778C30.8256 10.5433 30.6655 10.9362 30.3453 11.2564C30.0251 11.5766 29.6322 11.7367 29.1667 11.7367H5.83341Z" fill="white"/>
</g>
</svg>
