<svg width="20" height="20" viewBox="0 0 20 20" fill="none" xmlns="http://www.w3.org/2000/svg">
<mask id="mask0_623_2796" style="mask-type:alpha" maskUnits="userSpaceOnUse" x="0" y="0" width="20" height="20">
<rect width="20" height="20" fill="#D9D9D9"/>
</mask>
<g mask="url(#mask0_623_2796)">
<path d="M9.22824 16.0601C9.01266 15.8445 8.90139 15.5853 8.89445 15.2825C8.8875 14.9796 8.99182 14.7204 9.20741 14.5048L12.6077 11.1045H4.26086C3.9541 11.1045 3.69338 10.9972 3.4787 10.7825C3.26402 10.5678 3.15668 10.3071 3.15668 10.0003C3.15668 9.69357 3.26402 9.43285 3.4787 9.21817C3.69338 9.00349 3.9541 8.89615 4.26086 8.89615H12.6077L9.20741 5.48404C8.99182 5.26846 8.8875 5.01121 8.89445 4.71229C8.90139 4.41338 9.01266 4.15612 9.22824 3.94054C9.44382 3.72497 9.70304 3.61719 10.0059 3.61719C10.3087 3.61719 10.5679 3.72497 10.7835 3.94054L16.0833 9.22858C16.1981 9.32943 16.2787 9.44764 16.3252 9.58321C16.3717 9.71878 16.3949 9.85782 16.3949 10.0003C16.3949 10.1428 16.3717 10.2784 16.3252 10.407C16.2787 10.5357 16.1981 10.6573 16.0833 10.7721L10.7835 16.0719C10.5679 16.2875 10.3087 16.3933 10.0059 16.3894C9.70304 16.3854 9.44382 16.2757 9.22824 16.0601Z" fill="#221212"/>
</g>
</svg>
