<svg width="80" height="80" viewBox="0 0 80 80" fill="none" xmlns="http://www.w3.org/2000/svg">
<mask id="mask0_452_2661" style="mask-type:alpha" maskUnits="userSpaceOnUse" x="0" y="0" width="80" height="80">
<rect width="80" height="80" fill="#D9D9D9"/>
</mask>
<g mask="url(#mask0_452_2661)">
<path d="M40 39.9997C36.3334 39.9997 33.1945 38.6941 30.5834 36.083C27.9723 33.4719 26.6667 30.333 26.6667 26.6663C26.6667 22.9997 27.9723 19.8608 30.5834 17.2497C33.1945 14.6386 36.3334 13.333 40 13.333C43.6667 13.333 46.8056 14.6386 49.4167 17.2497C52.0278 19.8608 53.3334 22.9997 53.3334 26.6663C53.3334 30.333 52.0278 33.4719 49.4167 36.083C46.8056 38.6941 43.6667 39.9997 40 39.9997ZM13.3334 66.6663V57.333C13.3334 55.4441 13.8195 53.708 14.7917 52.1247C15.7639 50.5413 17.0556 49.333 18.6667 48.4997C22.1112 46.7775 25.6112 45.4858 29.1667 44.6247C32.7223 43.7636 36.3334 43.333 40 43.333C43.6667 43.333 47.2778 43.7636 50.8334 44.6247C54.3889 45.4858 57.8889 46.7775 61.3334 48.4997C62.9445 49.333 64.2361 50.5413 65.2084 52.1247C66.1806 53.708 66.6667 55.4441 66.6667 57.333V66.6663H13.3334ZM20 59.9997H60V57.333C60 56.7219 59.8473 56.1663 59.5417 55.6663C59.2362 55.1663 58.8334 54.7775 58.3334 54.4997C55.3334 52.9997 52.3056 51.8747 49.25 51.1247C46.1945 50.3747 43.1112 49.9997 40 49.9997C36.8889 49.9997 33.8056 50.3747 30.75 51.1247C27.6945 51.8747 24.6667 52.9997 21.6667 54.4997C21.1667 54.7775 20.7639 55.1663 20.4584 55.6663C20.1528 56.1663 20 56.7219 20 57.333V59.9997ZM40 33.333C41.8334 33.333 43.4028 32.6802 44.7084 31.3747C46.0139 30.0691 46.6667 28.4997 46.6667 26.6663C46.6667 24.833 46.0139 23.2636 44.7084 21.958C43.4028 20.6525 41.8334 19.9997 40 19.9997C38.1667 19.9997 36.5973 20.6525 35.2917 21.958C33.9862 23.2636 33.3334 24.833 33.3334 26.6663C33.3334 28.4997 33.9862 30.0691 35.2917 31.3747C36.5973 32.6802 38.1667 33.333 40 33.333Z" fill="#221212"/>
</g>
</svg>
