<svg width="35" height="35" viewBox="0 0 35 35" fill="none" xmlns="http://www.w3.org/2000/svg">
<mask id="mask0_623_1997" style="mask-type:alpha" maskUnits="userSpaceOnUse" x="-1" y="0" width="36" height="36">
<rect x="-0.317383" y="0.0351562" width="35" height="35" fill="#D9D9D9"/>
</mask>
<g mask="url(#mask0_623_1997)">
<path d="M15.141 27.9258L5.98991 18.8112C5.81977 18.6411 5.69192 18.4466 5.60637 18.2279C5.52178 18.0091 5.47949 17.7782 5.47949 17.5352C5.47949 17.2921 5.52178 17.0612 5.60637 16.8424C5.69192 16.6237 5.81977 16.4293 5.98991 16.2591L15.141 7.10807C15.5055 6.76779 15.9372 6.59766 16.436 6.59766C16.9337 6.59766 17.3771 6.77995 17.766 7.14453C18.1305 7.53342 18.3128 7.97092 18.3128 8.45703C18.3128 8.94314 18.1305 9.38064 17.766 9.76953L11.8232 15.6758H26.2972C26.8076 15.6758 27.2451 15.8581 27.6097 16.2227C27.9743 16.5872 28.1566 17.0247 28.1566 17.5352C28.1566 18.0456 27.9743 18.4831 27.6097 18.8477C27.2451 19.2122 26.8076 19.3945 26.2972 19.3945H11.8232L17.8024 25.3372C18.1427 25.6775 18.3128 26.0965 18.3128 26.5943C18.3128 27.0931 18.1305 27.5369 17.766 27.9258C17.4014 28.2904 16.9639 28.4727 16.4535 28.4727C15.943 28.4727 15.5055 28.2904 15.141 27.9258Z" fill="white"/>
</g>
</svg>
