<svg width="80" height="80" viewBox="0 0 80 80" fill="none" xmlns="http://www.w3.org/2000/svg">
<path d="M40.0109 74.0218C35.3646 74.0218 30.9732 73.1269 26.8368 71.337C22.7004 69.5472 19.0885 67.1085 16.0009 64.0209C12.9134 60.9334 10.4747 57.3213 8.68483 53.1846C6.89494 49.048 6 44.6563 6 40.0097C6 35.3064 6.91608 30.8871 8.74825 26.7518C10.5804 22.6166 13.068 19.0157 16.2111 15.9493C19.3542 12.8829 23.0207 10.4581 27.2106 8.67483C31.4005 6.89161 35.8735 6 40.6296 6C45.1592 6 49.4394 6.7805 53.4702 8.3415C57.5009 9.9025 61.039 12.0601 64.0843 14.8143C67.1296 17.5686 69.5472 20.8307 71.337 24.6009C73.1269 28.3711 74.0218 32.4389 74.0218 36.8044C74.0218 43.273 72.0674 48.3153 68.1586 51.9313C64.2497 55.5472 59.4312 57.3552 53.7029 57.3552H47.9947C47.5478 57.3552 47.2304 57.4808 47.0427 57.7319C46.8548 57.9831 46.7609 58.2688 46.7609 58.5888C46.7609 59.2289 47.1377 60.0943 47.8913 61.1848C48.645 62.2754 49.0218 63.593 49.0218 65.1377C49.0218 68.0218 48.1849 70.2235 46.5109 71.7428C44.837 73.2622 42.6704 74.0218 40.0109 74.0218ZM21.9167 43.3442C23.3612 43.3442 24.5556 42.872 25.5001 41.9276C26.4445 40.9831 26.9167 39.7887 26.9167 38.3442C26.9167 36.8998 26.4445 35.7054 25.5001 34.7609C24.5556 33.8165 23.3612 33.3442 21.9167 33.3442C20.4723 33.3442 19.2779 33.8165 18.3334 34.7609C17.389 35.7054 16.9167 36.8998 16.9167 38.3442C16.9167 39.7887 17.389 40.9831 18.3334 41.9276C19.2779 42.872 20.4723 43.3442 21.9167 43.3442ZM31.7972 30.1903C33.2416 30.1903 34.4361 29.718 35.3805 28.7736C36.3249 27.8291 36.7972 26.6347 36.7972 25.1903C36.7972 23.7458 36.3249 22.5514 35.3805 21.6069C34.4361 20.6625 33.2416 20.1903 31.7972 20.1903C30.3527 20.1903 29.1583 20.6625 28.2138 21.6069C27.2694 22.5514 26.7972 23.7458 26.7972 25.1903C26.7972 26.6347 27.2694 27.8291 28.2138 28.7736C29.1583 29.718 30.3527 30.1903 31.7972 30.1903ZM48.2247 30.1903C49.6691 30.1903 50.8636 29.718 51.808 28.7736C52.7524 27.8291 53.2247 26.6347 53.2247 25.1903C53.2247 23.7458 52.7524 22.5514 51.808 21.6069C50.8636 20.6625 49.6691 20.1903 48.2247 20.1903C46.7802 20.1903 45.5858 20.6625 44.6413 21.6069C43.6969 22.5514 43.2247 23.7458 43.2247 25.1903C43.2247 26.6347 43.6969 27.8291 44.6413 28.7736C45.5858 29.718 46.7802 30.1903 48.2247 30.1903ZM58.0453 43.3442C59.4898 43.3442 60.6842 42.872 61.6287 41.9276C62.5731 40.9831 63.0453 39.7887 63.0453 38.3442C63.0453 36.8998 62.5731 35.7054 61.6287 34.7609C60.6842 33.8165 59.4898 33.3442 58.0453 33.3442C56.6009 33.3442 55.4064 33.8165 54.462 34.7609C53.5176 35.7054 53.0453 36.8998 53.0453 38.3442C53.0453 39.7887 53.5176 40.9831 54.462 41.9276C55.4064 42.872 56.6009 43.3442 58.0453 43.3442ZM39.8913 66.4384C40.3614 66.4384 40.7401 66.3069 41.0274 66.0439C41.3148 65.7809 41.4584 65.439 41.4584 65.0182C41.4584 64.2404 41.0384 63.347 40.1984 62.3379C39.3584 61.3289 38.9384 59.7953 38.9384 57.7373C38.9384 55.3376 39.7671 53.4101 41.4245 51.9548C43.0818 50.4994 45.1106 49.7718 47.5109 49.7718H53.7029C57.343 49.7718 60.3756 48.709 62.8008 46.5834C65.2259 44.4578 66.4384 41.2446 66.4384 36.9439C66.4384 30.2217 63.8823 24.6477 58.77 20.222C53.6577 15.7963 47.6108 13.5834 40.6294 13.5834C33.1532 13.5834 26.7766 16.1468 21.4993 21.2736C16.2221 26.4004 13.5834 32.6494 13.5834 40.0205C13.5834 47.3366 16.1474 53.5686 21.2754 58.7165C26.4034 63.8644 32.6087 66.4384 39.8913 66.4384Z" fill="white"/>
<mask id="mask0_452_2434" style="mask-type:alpha" maskUnits="userSpaceOnUse" x="0" y="0" width="80" height="80">
<rect width="80" height="80" fill="#D9D9D9"/>
</mask>
<g mask="url(#mask0_452_2434)">
<path d="M40.0001 74.0101C35.3537 74.0101 30.9624 73.1152 26.826 71.3253C22.6896 69.5355 19.0776 67.0968 15.9901 64.0092C12.9025 60.9216 10.4638 57.3095 8.67397 53.1729C6.88408 49.0363 5.98914 44.6446 5.98914 39.9979C5.98914 35.2947 6.90522 30.8754 8.73739 26.7401C10.5695 22.6048 13.0571 19.004 16.2002 15.9376C19.3433 12.8712 23.0098 10.4463 27.1997 8.66311C31.3896 6.87989 35.8626 5.98828 40.6187 5.98828C45.1483 5.98828 49.4285 6.76878 53.4593 8.32978C57.4901 9.89078 61.0281 12.0484 64.0735 14.8026C67.1187 17.5568 69.5363 20.819 71.3261 24.5892C73.116 28.3594 74.011 32.4272 74.011 36.7927C74.011 43.2613 72.0565 48.3036 68.1477 51.9195C64.2389 55.5355 59.4203 57.3434 53.6921 57.3434H47.9838C47.5369 57.3434 47.2196 57.469 47.0318 57.7202C46.844 57.9714 46.7501 58.2571 46.7501 58.5771C46.7501 59.2172 47.1269 60.0826 47.8805 61.1731C48.6341 62.2637 49.011 63.5813 49.011 65.126C49.011 68.0101 48.174 70.2118 46.5001 71.7311C44.8262 73.2505 42.6595 74.0101 40.0001 74.0101ZM21.9059 43.3325C23.3503 43.3325 24.5448 42.8603 25.4892 41.9159C26.4337 40.9714 26.9059 39.777 26.9059 38.3325C26.9059 36.8881 26.4337 35.6936 25.4892 34.7492C24.5448 33.8048 23.3503 33.3325 21.9059 33.3325C20.4614 33.3325 19.267 33.8048 18.3226 34.7492C17.3781 35.6936 16.9059 36.8881 16.9059 38.3325C16.9059 39.777 17.3781 40.9714 18.3226 41.9159C19.267 42.8603 20.4614 43.3325 21.9059 43.3325ZM31.7863 30.1785C33.2307 30.1785 34.4252 29.7063 35.3696 28.7619C36.3141 27.8174 36.7863 26.623 36.7863 25.1785C36.7863 23.7341 36.3141 22.5396 35.3696 21.5952C34.4252 20.6508 33.2307 20.1785 31.7863 20.1785C30.3419 20.1785 29.1474 20.6508 28.203 21.5952C27.2585 22.5396 26.7863 23.7341 26.7863 25.1785C26.7863 26.623 27.2585 27.8174 28.203 28.7619C29.1474 29.7063 30.3419 30.1785 31.7863 30.1785ZM48.2138 30.1785C49.6582 30.1785 50.8527 29.7063 51.7971 28.7619C52.7416 27.8174 53.2138 26.623 53.2138 25.1785C53.2138 23.7341 52.7416 22.5396 51.7971 21.5952C50.8527 20.6508 49.6582 20.1785 48.2138 20.1785C46.7694 20.1785 45.5749 20.6508 44.6305 21.5952C43.686 22.5396 43.2138 23.7341 43.2138 25.1785C43.2138 26.623 43.686 27.8174 44.6305 28.7619C45.5749 29.7063 46.7694 30.1785 48.2138 30.1785ZM58.0345 43.3325C59.4789 43.3325 60.6734 42.8603 61.6178 41.9159C62.5623 40.9714 63.0345 39.777 63.0345 38.3325C63.0345 36.8881 62.5623 35.6936 61.6178 34.7492C60.6734 33.8048 59.4789 33.3325 58.0345 33.3325C56.59 33.3325 55.3956 33.8048 54.4511 34.7492C53.5067 35.6936 53.0345 36.8881 53.0345 38.3325C53.0345 39.777 53.5067 40.9714 54.4511 41.9159C55.3956 42.8603 56.59 43.3325 58.0345 43.3325ZM39.8805 66.4267C40.3506 66.4267 40.7293 66.2952 41.0166 66.0322C41.3039 65.7692 41.4476 65.4273 41.4476 65.0065C41.4476 64.2287 41.0276 63.3353 40.1876 62.3262C39.3476 61.3171 38.9276 59.7836 38.9276 57.7256C38.9276 55.3259 39.7562 53.3984 41.4136 51.943C43.071 50.4877 45.0998 49.76 47.5001 49.76H53.6921C57.3322 49.76 60.3648 48.6973 62.7899 46.5717C65.215 44.4461 66.4276 41.2329 66.4276 36.9322C66.4276 30.21 63.8714 24.636 58.7591 20.2103C53.6468 15.7846 47.5999 13.5717 40.6186 13.5717C33.1424 13.5717 26.7657 16.1351 21.4885 21.2619C16.2112 26.3887 13.5726 32.6377 13.5726 40.0088C13.5726 47.3248 16.1366 53.5568 21.2646 58.7048C26.3926 63.8527 32.5979 66.4267 39.8805 66.4267Z" fill="white"/>
</g>
</svg>
