<svg width="68" height="69" viewBox="0 0 68 69" fill="none" xmlns="http://www.w3.org/2000/svg">
<g filter="url(#filter0_d_623_2996)">
<rect x="4" y="2.22754" width="60" height="60" rx="10" fill="white"/>
</g>
<mask id="mask0_623_2996" style="mask-type:alpha" maskUnits="userSpaceOnUse" x="16" y="14" width="36" height="36">
<rect x="16.2979" y="14.3828" width="35.5556" height="35.5556" fill="#D9D9D9"/>
</mask>
<g mask="url(#mask0_623_2996)">
<path d="M34.0757 42.7165C33.5571 42.7165 33.1127 42.5313 32.7423 42.161C32.372 41.7906 32.1868 41.3461 32.1868 40.8276V34.0128H25.372C24.8534 34.0128 24.409 33.8276 24.0386 33.4572C23.6682 33.0869 23.4831 32.6424 23.4831 32.1239C23.4831 31.6301 23.6682 31.198 24.0386 30.8276C24.409 30.4572 24.8534 30.2721 25.372 30.2721H32.1868V23.4202C32.1868 22.9264 32.372 22.4943 32.7423 22.1239C33.1127 21.7535 33.5571 21.5684 34.0757 21.5684C34.5942 21.5684 35.0386 21.7535 35.409 22.1239C35.7794 22.4943 35.9645 22.9264 35.9645 23.4202V30.2721H42.7794C43.2979 30.2721 43.7423 30.4572 44.1127 30.8276C44.4831 31.198 44.6682 31.6301 44.6682 32.1239C44.6682 32.6424 44.4831 33.0869 44.1127 33.4572C43.7423 33.8276 43.2979 34.0128 42.7794 34.0128H35.9645V40.8276C35.9645 41.3461 35.7794 41.7906 35.409 42.161C35.0386 42.5313 34.5942 42.7165 34.0757 42.7165Z" fill="#FFB6A9"/>
</g>
<defs>
<filter id="filter0_d_623_2996" x="0" y="0.227539" width="68" height="68" filterUnits="userSpaceOnUse" color-interpolation-filters="sRGB">
<feFlood flood-opacity="0" result="BackgroundImageFix"/>
<feColorMatrix in="SourceAlpha" type="matrix" values="0 0 0 0 0 0 0 0 0 0 0 0 0 0 0 0 0 0 127 0" result="hardAlpha"/>
<feOffset dy="2"/>
<feGaussianBlur stdDeviation="2"/>
<feComposite in2="hardAlpha" operator="out"/>
<feColorMatrix type="matrix" values="0 0 0 0 0.133333 0 0 0 0 0.0705882 0 0 0 0 0.0705882 0 0 0 0.2 0"/>
<feBlend mode="normal" in2="BackgroundImageFix" result="effect1_dropShadow_623_2996"/>
<feBlend mode="normal" in="SourceGraphic" in2="effect1_dropShadow_623_2996" result="shape"/>
</filter>
</defs>
</svg>
