<svg width="143" height="143" viewBox="0 0 143 143" fill="none" xmlns="http://www.w3.org/2000/svg">
<g filter="url(#filter0_d_452_2629)">
<rect x="4" width="135" height="135" rx="10" fill="white"/>
</g>
<mask id="mask0_452_2629" style="mask-type:alpha" maskUnits="userSpaceOnUse" x="31" y="27" width="81" height="81">
<rect x="31.6702" y="27.3496" width="80" height="80" fill="#D9D9D9"/>
</mask>
<g mask="url(#mask0_452_2629)">
<path d="M71.6702 91.0999C70.5036 91.0999 69.5036 90.6833 68.6702 89.8499C67.8369 89.0166 67.4202 88.0166 67.4202 86.8499V71.5166H52.0869C50.9202 71.5166 49.9202 71.0999 49.0869 70.2666C48.2536 69.4333 47.8369 68.4333 47.8369 67.2666C47.8369 66.1555 48.2536 65.1833 49.0869 64.3499C49.9202 63.5166 50.9202 63.0999 52.0869 63.0999H67.4202V47.6833C67.4202 46.5722 67.8369 45.5999 68.6702 44.7666C69.5036 43.9333 70.5036 43.5166 71.6702 43.5166C72.8369 43.5166 73.8369 43.9333 74.6702 44.7666C75.5036 45.5999 75.9202 46.5722 75.9202 47.6833V63.0999H91.2536C92.4202 63.0999 93.4202 63.5166 94.2536 64.3499C95.0869 65.1833 95.5036 66.1555 95.5036 67.2666C95.5036 68.4333 95.0869 69.4333 94.2536 70.2666C93.4202 71.0999 92.4202 71.5166 91.2536 71.5166H75.9202V86.8499C75.9202 88.0166 75.5036 89.0166 74.6702 89.8499C73.8369 90.6833 72.8369 91.0999 71.6702 91.0999Z" fill="#FFB6A9"/>
</g>
<defs>
<filter id="filter0_d_452_2629" x="0" y="0" width="143" height="143" filterUnits="userSpaceOnUse" color-interpolation-filters="sRGB">
<feFlood flood-opacity="0" result="BackgroundImageFix"/>
<feColorMatrix in="SourceAlpha" type="matrix" values="0 0 0 0 0 0 0 0 0 0 0 0 0 0 0 0 0 0 127 0" result="hardAlpha"/>
<feOffset dy="4"/>
<feGaussianBlur stdDeviation="2"/>
<feComposite in2="hardAlpha" operator="out"/>
<feColorMatrix type="matrix" values="0 0 0 0 0.133333 0 0 0 0 0.0705882 0 0 0 0 0.0705882 0 0 0 0.2 0"/>
<feBlend mode="normal" in2="BackgroundImageFix" result="effect1_dropShadow_452_2629"/>
<feBlend mode="normal" in="SourceGraphic" in2="effect1_dropShadow_452_2629" result="shape"/>
</filter>
</defs>
</svg>
